<svg width="75" height="75" viewBox="0 0 75 75" fill="none" xmlns="http://www.w3.org/2000/svg">
<path fill-rule="evenodd" clip-rule="evenodd" d="M37.5 3.5C18.7223 3.5 3.5 18.7223 3.5 37.5C3.5 56.2777 18.7223 71.5 37.5 71.5C56.2777 71.5 71.5 56.2777 71.5 37.5C71.5 18.7223 56.2777 3.5 37.5 3.5ZM8.5 37.5C8.5 21.4837 21.4837 8.5 37.5 8.5C44.6258 8.5 51.1512 11.07 56.2001 15.3337L15.3337 56.2001C11.07 51.1512 8.5 44.6258 8.5 37.5ZM59.7297 18.8752C63.9554 23.9136 66.5 30.4096 66.5 37.5C66.5 53.5163 53.5163 66.5 37.5 66.5C30.4096 66.5 23.9136 63.9554 18.8753 59.7297L59.7297 18.8752Z" fill="black"/>
</svg>
