<svg width="75" height="75" viewBox="0 0 75 75" fill="none" xmlns="http://www.w3.org/2000/svg">
<path fill-rule="evenodd" clip-rule="evenodd" d="M37.5 8.25C25.5487 8.25 15.9219 18.412 15.9219 30.8695C15.9219 31.0373 15.9236 31.2047 15.9271 31.3717L15.9219 31.445V44.9285C15.9219 47.8326 14.605 50.5095 12.4491 52.2843C12.0451 52.6168 11.6117 52.9176 11.152 53.1823C10.6465 53.4733 10.109 53.7208 9.54354 53.9187L9.12885 54.0638C7.73532 54.5516 8.08534 56.6133 9.5621 56.6133H65.4379C66.9147 56.6133 67.2647 54.5516 65.8712 54.0638L65.4565 53.9187C64.891 53.7208 64.3535 53.4733 63.848 53.1823C63.3883 52.9176 62.9549 52.6168 62.551 52.2843C60.395 50.5095 59.0782 47.8326 59.0782 44.9285V31.5129L59.0727 31.3828C59.0764 31.212 59.0782 31.041 59.0782 30.8695C59.0782 18.412 49.4514 8.25 37.5 8.25ZM20.4219 30.8695C20.4219 20.6896 28.2367 12.75 37.5 12.75C46.7634 12.75 54.5782 20.6896 54.5782 30.8695C54.5782 31.0162 54.5765 31.1618 54.5733 31.3063L54.5706 31.4266L54.5782 31.607V44.9285C54.5782 47.5202 55.2906 49.989 56.5582 52.1133H18.4419C19.7094 49.9891 20.4219 47.5202 20.4219 44.9285V31.6047L20.4306 31.4814L20.4267 31.3063C20.4235 31.1618 20.4219 31.0162 20.4219 30.8695Z" fill="black"/>
<path d="M29.8249 60.1286C29.3505 58.9801 28.0348 58.4336 26.8863 58.908C25.7378 59.3823 25.1913 60.698 25.6657 61.8465C30.0762 72.5246 45.2008 72.5248 49.6112 61.8465C50.0856 60.6979 49.5391 59.3823 48.3905 58.9079C47.242 58.4336 45.9264 58.9801 45.452 60.1286C42.5738 67.0973 32.7033 67.0973 29.8249 60.1286Z" fill="black"/>
</svg>
