<svg width="75" height="75" viewBox="0 0 75 75" fill="none" xmlns="http://www.w3.org/2000/svg">
<path d="M10 11.908C5.85786 11.908 2.5 15.2658 2.5 19.408V65C2.5 69.1421 5.85786 72.5 10 72.5H52.171C56.3131 72.5 59.671 69.1421 59.671 65V34.5066C59.671 33.1259 58.5517 32.0066 57.171 32.0066C55.7903 32.0066 54.671 33.1259 54.671 34.5066V65C54.671 66.3807 53.5517 67.5 52.171 67.5H10C8.61929 67.5 7.5 66.3807 7.5 65V19.408C7.5 18.0272 8.61929 16.908 10 16.908H42.0802C43.4609 16.908 44.5802 15.7887 44.5802 14.408C44.5802 13.0272 43.4609 11.908 42.0802 11.908H10Z" fill="black"/>
<path fill-rule="evenodd" clip-rule="evenodd" d="M15.0578 55.4846C14.1771 57.884 16.5084 60.2153 18.9078 59.3346L26.2004 56.6579C27.9713 56.0079 29.5795 54.9803 30.9134 53.6464L58.7096 25.8501C59.3536 25.2061 59.8643 24.4415 60.2125 23.6C62.6679 17.6662 56.7262 11.7245 50.7924 14.1799C49.9509 14.5281 49.1863 15.0388 48.5423 15.6828L20.746 43.479C19.4121 44.8129 18.3845 46.4211 17.7345 48.192L15.0578 55.4846ZM24.4775 51.9641L21.24 53.1524L22.4283 49.9149C22.8283 48.8251 23.4607 47.8354 24.2815 47.0146L52.0778 19.2183C52.2571 19.039 52.4699 18.8969 52.7041 18.8C54.5235 18.0471 56.3453 19.8689 55.5924 21.6883C55.4955 21.9225 55.3534 22.1353 55.1741 22.3146L27.3778 50.1109C26.557 50.9317 25.5673 51.5641 24.4775 51.9641Z" fill="black"/>
</svg>
