<svg width="75" height="75" viewBox="0 0 75 75" fill="none" xmlns="http://www.w3.org/2000/svg">
<path fill-rule="evenodd" clip-rule="evenodd" d="M25.6875 6C13.701 6 4 15.7604 4 27.7802C4 34.7579 7.60261 40.8116 12.1353 44.7781L35.3489 68.6566C36.527 69.8683 38.473 69.8683 39.6511 68.6566L62.8647 44.7781C67.3974 40.8116 71 34.7579 71 27.7802C71 15.7604 61.299 6 49.3125 6C44.9182 6 40.9895 8.30853 37.9692 10.4482L36.4802 11.503L41.6928 20.5065L36.5653 29.4796C36.1718 30.1682 35.9919 30.9581 36.0484 31.7492L36.0685 32.0301L35.3786 31.2149L39.7527 22.4666C40.4128 21.1465 40.2923 19.5702 39.4391 18.3657L31.5936 7.28969L31.0336 7.07196C29.3782 6.42844 27.5824 6 25.6875 6ZM8 27.7802C8 17.9518 15.9279 10 25.6875 10C26.7959 10 27.9124 10.2155 29.0366 10.6L36.175 20.6778L31.8009 29.426C31.0853 30.8572 31.2915 32.5771 32.3251 33.7986L40.9315 43.9699L40.0382 31.4642L45.1657 22.4911C45.8725 21.2543 45.8682 19.7351 45.1545 18.5024L41.7913 12.6933C44.2526 11.1238 46.7785 10 49.3125 10C59.0721 10 67 17.9518 67 27.7802C67 33.3821 64.0741 38.4279 60.1762 41.8153L60.1127 41.8705L37.5 65.1308L14.8873 41.8705L14.8238 41.8153C10.9259 38.4279 8 33.3821 8 27.7802Z" fill="black"/>
</svg>
