<svg width="75" height="75" viewBox="0 0 75 75" fill="none" xmlns="http://www.w3.org/2000/svg">
<path d="M37.5757 14.9701C36.0787 14.9701 34.8651 16.1836 34.8651 17.6806V44.2069C34.8651 45.7039 36.0787 46.9174 37.5757 46.9174C39.0726 46.9174 40.2862 45.7039 40.2862 44.2069V17.6806C40.2862 16.1836 39.0726 14.9701 37.5757 14.9701Z" fill="black"/>
<path d="M37.5756 51.4437C35.4682 51.4437 33.7598 53.1521 33.7598 55.2595C33.7598 57.3669 35.4682 59.0753 37.5756 59.0753C39.683 59.0753 41.3913 57.3669 41.3913 55.2595C41.3913 53.1521 39.683 51.4437 37.5756 51.4437Z" fill="black"/>
<path fill-rule="evenodd" clip-rule="evenodd" d="M37.5 5.5C19.8269 5.5 5.5 19.8269 5.5 37.5C5.5 55.1731 19.8269 69.5 37.5 69.5C55.1731 69.5 69.5 55.1731 69.5 37.5C69.5 19.8269 55.1731 5.5 37.5 5.5ZM9.5 37.5C9.5 22.036 22.036 9.5 37.5 9.5C52.964 9.5 65.5 22.036 65.5 37.5C65.5 52.964 52.964 65.5 37.5 65.5C22.036 65.5 9.5 52.964 9.5 37.5Z" fill="black"/>
</svg>
