<svg width="75" height="75" viewBox="0 0 75 75" fill="none" xmlns="http://www.w3.org/2000/svg">
<path d="M37.4999 18.135C36.0718 18.135 34.9141 19.2927 34.9141 20.7207V45.7496C34.9141 47.1777 36.0718 48.3354 37.4999 48.3354C38.9279 48.3354 40.0856 47.1777 40.0856 45.7497V20.7207C40.0856 19.2927 38.9279 18.135 37.4999 18.135Z" fill="black"/>
<path d="M37.4997 52.5497C35.4957 52.5497 33.8711 54.1743 33.8711 56.1783C33.8711 58.1824 35.4957 59.8069 37.4997 59.8069C39.5038 59.8069 41.1283 58.1824 41.1283 56.1783C41.1283 54.1743 39.5038 52.5497 37.4997 52.5497Z" fill="black"/>
<path fill-rule="evenodd" clip-rule="evenodd" d="M42.2639 12.2327C40.133 8.58911 34.8671 8.58911 32.7361 12.2327L6.26252 57.4984C4.11079 61.1776 6.76426 65.8034 11.0264 65.8034H63.9736C68.2358 65.8034 70.8893 61.1776 68.7375 57.4984L42.2639 12.2327ZM36.189 14.252C36.7754 13.2493 38.2246 13.2493 38.8111 14.2521L65.2847 59.5178C65.8769 60.5303 65.1466 61.8034 63.9736 61.8034H11.0264C9.85344 61.8034 9.12318 60.5303 9.71536 59.5178L36.189 14.252Z" fill="black"/>
</svg>
