<svg width="75" height="75" viewBox="0 0 75 75" fill="none" xmlns="http://www.w3.org/2000/svg">
<path fill-rule="evenodd" clip-rule="evenodd" d="M4.67117 30.0857C5.49655 29.3517 6.76071 29.4257 7.49475 30.2511L37.5003 63.9905L67.5058 30.2511C68.2398 29.4257 69.504 29.3517 70.3294 30.0857C71.1547 30.8198 71.2288 32.0839 70.4948 32.9093L40.4892 66.6487C38.8982 68.4377 36.1024 68.4377 34.5113 66.6487L4.50578 32.9093C3.77174 32.0839 3.84578 30.8198 4.67117 30.0857Z" fill="black"/>
<path fill-rule="evenodd" clip-rule="evenodd" d="M4.67117 6.91593C5.49655 6.18189 6.76071 6.25594 7.49475 7.08132L37.5003 40.8207L67.5058 7.08132C68.2398 6.25594 69.504 6.18189 70.3294 6.91593C71.1547 7.64997 71.2288 8.91414 70.4948 9.73952L40.4892 43.4789C38.8982 45.2679 36.1024 45.2679 34.5113 43.4789L4.50578 9.73952C3.77174 8.91414 3.84578 7.64997 4.67117 6.91593Z" fill="black"/>
</svg>
