<svg width="75" height="75" viewBox="0 0 75 75" fill="none" xmlns="http://www.w3.org/2000/svg">
<path fill-rule="evenodd" clip-rule="evenodd" d="M44.9141 4.67092C45.6482 5.49631 45.5741 6.76047 44.7488 7.49451L11.0094 37.5L44.7488 67.5055C45.5741 68.2396 45.6482 69.5037 44.9141 70.3291C44.1801 71.1545 42.9159 71.2286 42.0906 70.4945L8.35123 40.489C6.56216 38.8979 6.56216 36.1021 8.35123 34.511L42.0906 4.50553C42.9159 3.77149 44.1801 3.84554 44.9141 4.67092Z" fill="black"/>
<path fill-rule="evenodd" clip-rule="evenodd" d="M68.0838 4.67092C68.8179 5.49631 68.7438 6.76047 67.9184 7.49451L34.1791 37.5L67.9184 67.5055C68.7438 68.2396 68.8179 69.5037 68.0838 70.3291C67.3498 71.1545 66.0856 71.2286 65.2602 70.4945L31.5209 40.489C29.7318 38.8979 29.7318 36.1021 31.5209 34.511L65.2602 4.50553C66.0856 3.77149 67.3498 3.84554 68.0838 4.67092Z" fill="black"/>
</svg>
