<svg width="75" height="75" viewBox="0 0 75 75" fill="none" xmlns="http://www.w3.org/2000/svg">
<path fill-rule="evenodd" clip-rule="evenodd" d="M30.0859 70.3291C29.3518 69.5037 29.4259 68.2395 30.2512 67.5055L63.9906 37.5L30.2512 7.49446C29.4259 6.76043 29.3518 5.49626 30.0859 4.67088C30.8199 3.8455 32.0841 3.77145 32.9094 4.50549L66.6488 34.511C68.4378 36.1021 68.4378 38.8979 66.6488 40.489L32.9094 70.4945C32.0841 71.2285 30.8199 71.1545 30.0859 70.3291Z" fill="black"/>
<path fill-rule="evenodd" clip-rule="evenodd" d="M6.91618 70.3291C6.18214 69.5037 6.25618 68.2395 7.08157 67.5055L40.8209 37.5L7.08157 7.49446C6.25618 6.76043 6.18214 5.49626 6.91618 4.67088C7.65022 3.8455 8.91438 3.77145 9.73976 4.50549L43.4791 34.511C45.2682 36.1021 45.2682 38.8979 43.4791 40.489L9.73976 70.4945C8.91438 71.2285 7.65022 71.1545 6.91618 70.3291Z" fill="black"/>
</svg>
