<svg width="75" height="75" viewBox="0 0 75 75" fill="none" xmlns="http://www.w3.org/2000/svg">
<path fill-rule="evenodd" clip-rule="evenodd" d="M39.7407 4.5C22.4159 4.5 8.37241 18.5475 8.37241 35.8747C8.37241 40.2731 9.27876 44.4663 10.9172 48.2725C11.0154 48.5005 10.9975 48.6918 10.9489 48.8072L4.5487 64.0053C3.38322 66.7729 6.01538 69.6268 8.86801 68.6884L24.5338 63.5352C24.6528 63.4961 24.8449 63.4937 25.064 63.6099C29.4458 65.934 34.4433 67.2494 39.7407 67.2494C57.0654 67.2494 71.1089 53.2019 71.1089 35.8747C71.1089 18.5475 57.0654 4.5 39.7407 4.5ZM13.3724 35.8747C13.3724 21.3079 25.1784 9.5 39.7407 9.5C54.3029 9.5 66.1089 21.3079 66.1089 35.8747C66.1089 50.4416 54.3029 62.2494 39.7407 62.2494C35.2798 62.2494 31.0846 61.1434 27.4069 59.1928C26.0979 58.4985 24.4993 58.283 22.9715 58.7856L10.4355 62.9092L15.5569 50.7477C16.181 49.2658 16.0954 47.6558 15.5098 46.2955C14.1352 43.1022 13.3724 39.5808 13.3724 35.8747Z" fill="black"/>
</svg>
