<svg width="75" height="75" viewBox="0 0 75 75" fill="none" xmlns="http://www.w3.org/2000/svg">
<path d="M20.0001 31C16.6863 31 14.0001 33.6863 14.0001 37C14.0001 40.3137 16.6863 43 20.0001 43C23.3138 43 26.0001 40.3137 26.0001 37C26.0001 33.6863 23.3138 31 20.0001 31Z" fill="black"/>
<path d="M35.0001 31C31.6863 31 29.0001 33.6863 29.0001 37C29.0001 40.3137 31.6863 43 35.0001 43C38.3138 43 41.0001 40.3137 41.0001 37C41.0001 33.6863 38.3138 31 35.0001 31Z" fill="black"/>
<path d="M50.0001 31C46.6863 31 44.0001 33.6863 44.0001 37C44.0001 40.3137 46.6863 43 50.0001 43C53.3138 43 56.0001 40.3137 56.0001 37C56.0001 33.6863 53.3138 31 50.0001 31Z" fill="black"/>
<path fill-rule="evenodd" clip-rule="evenodd" d="M35.2596 4.5C17.9349 4.5 3.89136 18.5475 3.89136 35.8747C3.89136 53.2019 17.9349 67.2494 35.2596 67.2494C40.557 67.2494 45.5545 65.934 49.9362 63.6099C50.1554 63.4937 50.3474 63.4961 50.4664 63.5352L66.1323 68.6884C68.9849 69.6268 71.6171 66.7729 70.4516 64.0053L64.0514 48.8072C64.0028 48.6918 63.9849 48.5005 64.083 48.2725C65.7215 44.4663 66.6279 40.2731 66.6279 35.8747C66.6279 18.5475 52.5844 4.5 35.2596 4.5ZM8.89136 35.8747C8.89136 21.3079 20.6973 9.5 35.2596 9.5C49.8219 9.5 61.6279 21.3079 61.6279 35.8747C61.6279 39.5808 60.8651 43.1022 59.4905 46.2955C58.9049 47.6558 58.8193 49.2658 59.4433 50.7477L64.5647 62.9092L52.0288 58.7856C50.501 58.283 48.9024 58.4985 47.5934 59.1928C43.9157 61.1434 39.7205 62.2494 35.2596 62.2494C20.6973 62.2494 8.89136 50.4416 8.89136 35.8747Z" fill="black"/>
</svg>
