<svg width="75" height="75" viewBox="0 0 75 75" fill="none" xmlns="http://www.w3.org/2000/svg">
<path d="M25 30.5C21.4101 30.5 18.5 33.4101 18.5 37C18.5 40.5899 21.4101 43.5 25 43.5C28.5898 43.5 31.5 40.5899 31.5 37C31.5 33.4101 28.5898 30.5 25 30.5Z" fill="black"/>
<path d="M40 30.5C36.4101 30.5 33.5 33.4101 33.5 37C33.5 40.5899 36.4101 43.5 40 43.5C43.5898 43.5 46.5 40.5899 46.5 37C46.5 33.4101 43.5898 30.5 40 30.5Z" fill="black"/>
<path d="M55 30.5C51.4101 30.5 48.5 33.4101 48.5 37C48.5 40.5899 51.4101 43.5 55 43.5C58.5898 43.5 61.5 40.5899 61.5 37C61.5 33.4101 58.5898 30.5 55 30.5Z" fill="black"/>
<path fill-rule="evenodd" clip-rule="evenodd" d="M39.7404 4C22.1394 4 7.87216 18.2715 7.87216 35.8747C7.87216 40.3423 8.79287 44.6027 10.4577 48.4702C10.4968 48.561 10.4873 48.6108 10.4861 48.617L4.08764 63.8113C2.75566 66.9743 5.76385 70.2358 9.024 69.1634L24.6854 64.0116C24.6918 64.0109 24.7424 64.0054 24.8295 64.0516C29.2817 66.4131 34.3594 67.7494 39.7404 67.7494C57.3414 67.7494 71.6087 53.478 71.6087 35.8747C71.6087 18.2715 57.3414 4 39.7404 4ZM13.8722 35.8747C13.8722 21.5839 25.4544 10 39.7404 10C54.0264 10 65.6087 21.5839 65.6087 35.8747C65.6087 50.1655 54.0264 61.7494 39.7404 61.7494C35.3632 61.7494 31.2482 60.6644 27.6409 58.7511C26.2233 57.9991 24.484 57.7616 22.815 58.3106L11.3223 62.0911L16.0175 50.9417C16.6992 49.3229 16.603 47.571 15.9688 46.0978C14.6205 42.9658 13.8722 39.5116 13.8722 35.8747Z" fill="black"/>
</svg>
