<svg width="75" height="75" viewBox="0 0 75 75" fill="none" xmlns="http://www.w3.org/2000/svg">
<path d="M24.829 21.8737C25.8638 20.9596 25.9617 19.3797 25.0476 18.3449C24.1335 17.3101 22.5536 17.2122 21.5188 18.1263L4.04184 33.5643C2.01405 35.3555 2.01405 38.5183 4.04184 40.3096L21.5188 55.7476C22.5536 56.6616 24.1335 56.5638 25.0476 55.529C25.9617 54.4942 25.8638 52.9143 24.829 52.0002L7.77624 36.9369L24.829 21.8737Z" fill="black"/>
<path d="M51.1712 52.8632C50.1364 53.7773 50.0386 55.3572 50.9526 56.392C51.8667 57.4268 53.4466 57.5247 54.4814 56.6106L71.9584 41.1726C73.9862 39.3814 73.9862 36.2185 71.9584 34.4273L54.4814 18.9893C53.4466 18.0752 51.8667 18.1731 50.9526 19.2079C50.0386 20.2427 50.1364 21.8226 51.1712 22.7367L68.224 37.8L51.1712 52.8632Z" fill="black"/>
</svg>
