<svg width="75" height="75" viewBox="0 0 75 75" fill="none" xmlns="http://www.w3.org/2000/svg">
<g clip-path="url(#clip0)">
<path fill-rule="evenodd" clip-rule="evenodd" d="M28.1953 16.6491C26.8586 15.8694 25.1807 16.8381 25.1876 18.3856L25.2963 42.7967C25.2995 43.5049 25.6769 44.1586 26.2886 44.5154L47.3749 56.8151C48.7116 57.5948 50.3894 56.6261 50.3826 55.0786L50.2739 30.6675C50.2707 29.9593 49.8933 29.3056 49.2816 28.9488L28.1953 16.6491ZM45.3592 49.8509L30.2886 41.0602L30.211 23.6133L45.2815 32.404L45.3592 49.8509Z" fill="black"/>
<path fill-rule="evenodd" clip-rule="evenodd" d="M20.7801 8.38396C5.23558 17.3586 -0.0903678 37.2353 8.88426 52.7798C17.8589 68.3243 37.7356 73.6502 53.2801 64.6756C68.8246 55.701 74.1505 35.8243 65.1759 20.2798C56.2013 4.73527 36.3246 -0.590671 20.7801 8.38396ZM13.2144 50.2798C5.62047 37.1267 10.127 20.308 23.2801 12.7141C36.4331 5.12017 53.2519 9.62673 60.8458 22.7798C68.4397 35.9328 63.9331 52.7516 50.7801 60.3455C37.627 67.9394 20.8083 63.4328 13.2144 50.2798Z" fill="black"/>
</g>
<defs>
<clipPath id="clip0">
<rect width="75" height="75" fill="white"/>
</clipPath>
</defs>
</svg>
