<svg width="75" height="75" viewBox="0 0 75 75" fill="none" xmlns="http://www.w3.org/2000/svg">
<path fill-rule="evenodd" clip-rule="evenodd" d="M39.7891 15.8654C39.0213 14.5218 37.0839 14.5218 36.3161 15.8654L24.2047 37.0604C23.8533 37.6753 23.8533 38.4301 24.2047 39.0449L36.3161 60.2399C37.0839 61.5835 39.0213 61.5835 39.7891 60.2399L51.9005 39.0449C52.2518 38.4301 52.2518 37.6753 51.9005 37.0604L39.7891 15.8654ZM38.0526 53.2009L29.3964 38.0527L38.0526 22.9044L46.7087 38.0527L38.0526 53.2009Z" fill="black"/>
<path fill-rule="evenodd" clip-rule="evenodd" d="M37.5 5C19.5507 5 5 19.5507 5 37.5C5 55.4493 19.5507 70 37.5 70C55.4493 70 70 55.4493 70 37.5C70 19.5507 55.4493 5 37.5 5ZM10 37.5C10 22.3122 22.3122 10 37.5 10C52.6878 10 65 22.3122 65 37.5C65 52.6878 52.6878 65 37.5 65C22.3122 65 10 52.6878 10 37.5Z" fill="black"/>
</svg>
