<svg width="75" height="75" viewBox="0 0 75 75" fill="none" xmlns="http://www.w3.org/2000/svg">
<g clip-path="url(#clip0)">
<path fill-rule="evenodd" clip-rule="evenodd" d="M49.3299 19.4382C49.3368 17.8907 47.659 16.922 46.3222 17.7017L25.236 30.0014C24.6243 30.3582 24.2469 31.0119 24.2437 31.72L24.135 56.1311C24.1281 57.6786 25.806 58.6473 27.1427 57.8676L48.229 45.5679C48.8407 45.2111 49.2181 44.5574 49.2212 43.8493L49.3299 19.4382ZM29.1583 50.9034L29.236 33.4566L44.3066 24.6659L44.2289 42.1127L29.1583 50.9034Z" fill="black"/>
<path fill-rule="evenodd" clip-rule="evenodd" d="M52.7798 8.88389C37.2353 -0.090735 17.3586 5.23521 8.38401 20.7797C-0.590612 36.3242 4.73533 56.2009 20.2798 65.1755C35.8243 74.1502 55.701 68.8242 64.6757 53.2797C73.6503 37.7352 68.3243 17.8585 52.7798 8.88389ZM12.7141 23.2797C20.3081 10.1267 37.1268 5.6201 50.2798 13.214C63.4329 20.8079 67.9395 37.6267 60.3455 50.7797C52.7516 63.9328 35.9329 68.4393 22.7798 60.8454C9.62679 53.2515 5.12023 36.4328 12.7141 23.2797Z" fill="black"/>
</g>
<defs>
<clipPath id="clip0">
<rect width="75" height="75" fill="white"/>
</clipPath>
</defs>
</svg>
