<svg width="75" height="75" viewBox="0 0 75 75" fill="none" xmlns="http://www.w3.org/2000/svg">
<path fill-rule="evenodd" clip-rule="evenodd" d="M37.5 20.875C28.3183 20.875 20.875 28.3183 20.875 37.5C20.875 46.6817 28.3183 54.125 37.5 54.125C46.6817 54.125 54.125 46.6817 54.125 37.5C54.125 28.3183 46.6817 20.875 37.5 20.875ZM24.875 37.5C24.875 30.5274 30.5274 24.875 37.5 24.875C44.4726 24.875 50.125 30.5274 50.125 37.5C50.125 44.4726 44.4726 50.125 37.5 50.125C30.5274 50.125 24.875 44.4726 24.875 37.5Z" fill="black"/>
<path fill-rule="evenodd" clip-rule="evenodd" d="M66 31.75H61.8465L61.4647 31.3682C59.6548 29.5584 58.6174 27.1205 58.5646 24.5668L61.59 21.5415C62.9568 20.1746 62.9568 17.9586 61.59 16.5917L58.4079 13.4097C57.0411 12.0429 54.8251 12.0429 53.4582 13.4096L50.8678 16H50.329C47.6874 16 45.1512 14.9772 43.25 13.1508V9C43.25 7.067 41.683 5.5 39.75 5.5H35.25C33.317 5.5 31.75 7.067 31.75 9V12.7163L31.6779 12.7885C29.67 14.7964 26.9636 15.9451 24.1299 15.9981L21.5413 13.4096C20.1745 12.0429 17.9585 12.0429 16.5916 13.4097L13.4096 16.5917C12.0427 17.9586 12.0427 20.1746 13.4096 21.5415L15.9981 24.13C15.9451 26.9636 14.7964 29.67 12.7886 31.6778L12.7164 31.75H9C7.067 31.75 5.5 33.317 5.5 35.25V39.75C5.5 41.683 7.067 43.25 9 43.25H13.151C14.9772 45.151 16 47.6869 16 50.3283V50.8682L13.4096 53.4585C12.0427 54.8254 12.0427 57.0415 13.4096 58.4083L16.5916 61.5903C17.9585 62.9571 20.1745 62.9571 21.5413 61.5904L24.5672 58.5646C27.1208 58.6174 29.5587 59.6548 31.3685 61.4647L31.75 61.8462V66C31.75 67.933 33.317 69.5 35.25 69.5H39.75C41.683 69.5 43.25 67.933 43.25 66V61.4117C45.1512 59.5853 47.6874 58.5625 50.329 58.5625H50.4303L53.4582 61.5904C54.8251 62.9572 57.0411 62.9571 58.4079 61.5903L61.59 58.4083C62.9568 57.0415 62.9568 54.8254 61.59 53.4585L58.5625 50.4311V50.3291C58.5625 47.6874 59.5854 45.1512 61.4119 43.25H66C67.933 43.25 69.5 41.683 69.5 39.75V35.25C69.5 33.317 67.933 31.75 66 31.75ZM54.5625 24.3618C54.5625 27.8836 55.8982 31.2677 58.2891 33.8367L58.2827 33.8431L60.1897 35.75H65.5V39.25H59.7522L58.7271 40.2751C56.0605 42.9415 54.5625 46.5581 54.5625 50.3291V52.0879L58.408 55.9334L55.9331 58.4084L52.0871 54.5625H50.329C46.5582 54.5625 42.9417 56.0604 40.2752 58.7267L39.25 59.7519V65.5H35.75V60.1894L34.197 58.6363C31.5886 56.0279 28.051 54.5625 24.3622 54.5625H22.9125L19.0665 58.4083L16.5916 55.9334L20 52.525V50.3283C20 46.5576 18.5021 42.9414 15.8359 40.2752L14.8108 39.25H9.5V35.75H14.3733L15.617 34.5062C18.4234 31.6998 20 27.8936 20 23.9248V22.475L16.5916 19.0666L19.0665 16.5917L22.475 20H23.9247C27.8936 20 31.6999 18.4233 34.5063 15.6168L35.75 14.3731V9.5H39.25V14.8107L40.2752 15.8358C42.9417 18.5021 46.5582 20 50.329 20H52.5246L55.9331 16.5917L58.408 19.0666L54.5625 22.9121V24.3618Z" fill="black"/>
</svg>
