<svg width="75" height="75" viewBox="0 0 75 75" fill="none" xmlns="http://www.w3.org/2000/svg">
<path d="M41.0723 51.6838L52.1403 40.6158C53.019 39.7371 54.4436 39.7371 55.3223 40.6158C56.201 41.4944 56.201 42.9191 55.3223 43.7977L41.0022 58.1179C39.7343 59.3857 37.6787 59.3857 36.4109 58.1179L22.0908 43.7977C21.2121 42.9191 21.2121 41.4944 22.0908 40.6158C22.9695 39.7371 24.3941 39.7371 25.2728 40.6158L36.5723 51.9153V8.25C36.5723 7.00736 37.5796 6 38.8223 6C40.0649 6 41.0723 7.00736 41.0723 8.25V51.6838Z" fill="black"/>
<path fill-rule="evenodd" clip-rule="evenodd" d="M10 67.5C10 66.6716 10.6716 66 11.5 66H64C64.8284 66 65.5 66.6716 65.5 67.5C65.5 68.3285 64.8284 69 64 69H11.5C10.6716 69 10 68.3285 10 67.5Z" fill="black"/>
</svg>
