<svg width="75" height="75" viewBox="0 0 75 75" fill="none" xmlns="http://www.w3.org/2000/svg">
<path fill-rule="evenodd" clip-rule="evenodd" d="M17.2353 14C12.3622 14 8.41183 17.9504 8.41183 22.8234C8.41183 27.6965 12.3622 31.6469 17.2353 31.6469C22.1083 31.6469 26.0587 27.6965 26.0587 22.8234C26.0587 17.9504 22.1083 14 17.2353 14ZM13.2118 22.8234C13.2118 20.6013 15.0132 18.8 17.2353 18.8C19.4574 18.8 21.2587 20.6013 21.2587 22.8234C21.2587 25.0455 19.4574 26.8469 17.2353 26.8469C15.0132 26.8469 13.2118 25.0455 13.2118 22.8234Z" fill="black"/>
<path fill-rule="evenodd" clip-rule="evenodd" d="M56.7651 14C51.892 14 47.9416 17.9504 47.9416 22.8234C47.9416 27.6965 51.892 31.6469 56.7651 31.6469C61.6381 31.6469 65.5885 27.6965 65.5885 22.8234C65.5885 17.9504 61.6381 14 56.7651 14ZM52.7416 22.8234C52.7416 20.6013 54.543 18.8 56.7651 18.8C58.9872 18.8 60.7886 20.6013 60.7886 22.8234C60.7886 25.0455 58.9872 26.8469 56.7651 26.8469C54.543 26.8469 52.7416 25.0455 52.7416 22.8234Z" fill="black"/>
<path fill-rule="evenodd" clip-rule="evenodd" d="M36.5888 16.4706C31.0335 16.4706 26.53 20.974 26.53 26.5293C26.53 32.0846 31.0335 36.588 36.5888 36.588C42.144 36.588 46.6475 32.0846 46.6475 26.5293C46.6475 20.974 42.144 16.4706 36.5888 16.4706ZM31.33 26.5293C31.33 23.625 33.6844 21.2706 36.5888 21.2706C39.4931 21.2706 41.8475 23.625 41.8475 26.5293C41.8475 29.4336 39.4931 31.7881 36.5888 31.7881C33.6844 31.7881 31.33 29.4336 31.33 26.5293Z" fill="black"/>
<path fill-rule="evenodd" clip-rule="evenodd" d="M13.2653 32.1175C6.56736 32.1175 1 37.1519 1 43.5254V47.3125C1 50.0311 3.20382 52.2349 5.92236 52.2349H15.6797C16.9087 52.2349 17.905 51.2386 17.905 50.0096C17.905 45.3974 20.7601 41.3479 25.0209 39.3342C26.3147 38.7227 27.2832 37.554 27.5772 36.3195C27.7271 35.6905 27.7104 34.9962 27.4039 34.3588C27.0907 33.7076 26.5252 33.2215 25.7777 32.9412C24.359 32.4093 22.8109 32.1175 21.1927 32.1175H13.2653ZM5.79997 43.5254C5.79997 40.146 8.86155 36.9174 13.2653 36.9174H19.7913C16.433 39.4557 14.0146 43.1447 13.3133 47.4349H5.92236C5.85476 47.4349 5.79997 47.3801 5.79997 47.3125V43.5254Z" fill="black"/>
<path fill-rule="evenodd" clip-rule="evenodd" d="M52.8074 32.1175C51.1892 32.1175 49.6411 32.4093 48.2224 32.9412C47.4749 33.2215 46.9094 33.7076 46.5962 34.3588C46.2897 34.9962 46.273 35.6905 46.4229 36.3195C46.7169 37.554 47.6854 38.7227 48.9792 39.3342C53.24 41.3479 56.0951 45.3974 56.0951 50.0096C56.0951 51.2386 57.0914 52.2349 58.3204 52.2349H68.0777C70.7963 52.2349 73.0001 50.0311 73.0001 47.3125V43.5254C73.0001 37.1519 67.4327 32.1175 60.7348 32.1175H52.8074ZM60.6868 47.4349C59.9855 43.1447 57.5671 39.4557 54.2088 36.9174H60.7348C65.1385 36.9174 68.2001 40.146 68.2001 43.5254V47.3125C68.2001 47.3801 68.1453 47.4349 68.0777 47.4349H60.6868Z" fill="black"/>
<path fill-rule="evenodd" clip-rule="evenodd" d="M32.0875 37.8819C24.5453 37.8819 18.2947 43.5523 18.2947 50.709V52.9366C18.2947 57.0971 21.6675 60.4699 25.828 60.4699H47.3493C51.5098 60.4699 54.8826 57.0971 54.8826 52.9366V50.709C54.8826 43.5523 48.632 37.8819 41.0898 37.8819H32.0875ZM23.0947 50.709C23.0947 46.5448 26.8414 42.6818 32.0875 42.6818H41.0898C46.3359 42.6818 50.0826 46.5448 50.0826 50.709V52.9366C50.0826 54.4462 48.8589 55.6699 47.3493 55.6699H25.828C24.3184 55.6699 23.0947 54.4462 23.0947 52.9366V50.709Z" fill="black"/>
</svg>
