<svg width="75" height="75" viewBox="0 0 75 75" fill="none" xmlns="http://www.w3.org/2000/svg">
<path fill-rule="evenodd" clip-rule="evenodd" d="M25.6875 5.5C13.4226 5.5 3.5 15.4865 3.5 27.7802C3.5 34.9255 7.18266 41.102 11.7908 45.141L34.9904 69.0051C36.3648 70.4188 38.6352 70.4188 40.0096 69.0051L63.2092 45.141C67.8174 41.102 71.5 34.9255 71.5 27.7802C71.5 15.4865 61.5774 5.5 49.3125 5.5C44.6951 5.5 40.587 7.95851 37.5 10.1679C34.413 7.95851 30.3049 5.5 25.6875 5.5ZM8.5 27.7802C8.5 18.2258 16.2062 10.5 25.6875 10.5C28.9474 10.5 32.213 12.4623 35.4072 14.8298C36.6503 15.7511 38.3497 15.7511 39.5928 14.8298C42.787 12.4623 46.0526 10.5 49.3125 10.5C58.7938 10.5 66.5 18.2258 66.5 27.7802C66.5 33.2062 63.6628 38.1229 59.8482 41.4379L59.7688 41.5069L37.5 64.4135L15.2312 41.5069L15.1518 41.4379C11.3372 38.1229 8.5 33.2062 8.5 27.7802Z" fill="black"/>
</svg>
