<svg width="75" height="75" viewBox="0 0 75 75" fill="none" xmlns="http://www.w3.org/2000/svg">
<path d="M37.1285 17.5001C35.1244 17.5001 33.4998 19.1247 33.4998 21.1287C33.4998 23.1327 35.1244 24.7573 37.1285 24.7573C39.1325 24.7573 40.7571 23.1327 40.7571 21.1287C40.7571 19.1247 39.1325 17.5001 37.1285 17.5001Z" fill="black"/>
<path d="M37.1283 28.9716C35.7003 28.9716 34.5426 30.1293 34.5426 31.5574V56.5863C34.5426 58.0144 35.7003 59.1721 37.1283 59.1721C38.5564 59.1721 39.7141 58.0144 39.7141 56.5863V31.5574C39.7141 30.1293 38.5564 28.9716 37.1283 28.9716Z" fill="black"/>
<path fill-rule="evenodd" clip-rule="evenodd" d="M37.5 5.5C19.8269 5.5 5.5 19.8269 5.5 37.5C5.5 55.1731 19.8269 69.5 37.5 69.5C55.1731 69.5 69.5 55.1731 69.5 37.5C69.5 19.8269 55.1731 5.5 37.5 5.5ZM9.5 37.5C9.5 22.036 22.036 9.5 37.5 9.5C52.964 9.5 65.5 22.036 65.5 37.5C65.5 52.964 52.964 65.5 37.5 65.5C22.036 65.5 9.5 52.964 9.5 37.5Z" fill="black"/>
</svg>
