<svg width="75" height="75" viewBox="0 0 75 75" fill="none" xmlns="http://www.w3.org/2000/svg">
<path d="M37.1287 19.5C35.1247 19.5 33.5001 21.1246 33.5001 23.1286C33.5001 25.1327 35.1247 26.7573 37.1287 26.7573C39.1328 26.7573 40.7573 25.1327 40.7573 23.1286C40.7573 21.1246 39.1328 19.5 37.1287 19.5Z" fill="black"/>
<path d="M37.1286 30.9716C35.7006 30.9716 34.5429 32.1293 34.5429 33.5573V58.5863C34.5429 60.0143 35.7006 61.172 37.1286 61.172C38.5567 61.172 39.7144 60.0143 39.7144 58.5863V33.5573C39.7144 32.1293 38.5567 30.9716 37.1286 30.9716Z" fill="black"/>
<path fill-rule="evenodd" clip-rule="evenodd" d="M42.2639 12.2327C40.133 8.58911 34.8671 8.58911 32.7361 12.2327L6.26252 57.4984C4.11079 61.1776 6.76426 65.8034 11.0264 65.8034H63.9736C68.2358 65.8034 70.8893 61.1776 68.7375 57.4984L42.2639 12.2327ZM36.189 14.252C36.7754 13.2493 38.2246 13.2493 38.8111 14.2521L65.2847 59.5178C65.8769 60.5303 65.1466 61.8034 63.9736 61.8034H11.0264C9.85344 61.8034 9.12318 60.5303 9.71536 59.5178L36.189 14.252Z" fill="black"/>
</svg>
