<svg width="75" height="75" viewBox="0 0 75 75" fill="none" xmlns="http://www.w3.org/2000/svg">
<path d="M30.7817 3.5C29.401 3.5 28.2817 4.61929 28.2817 6C28.2817 7.38071 29.401 8.5 30.7817 8.5H53.9999C58.1421 8.5 61.4999 11.8579 61.4999 16V59C61.4999 63.1421 58.1421 66.5 53.9999 66.5H30.7817C29.401 66.5 28.2817 67.6193 28.2817 69C28.2817 70.3807 29.401 71.5 30.7817 71.5H53.9999C60.9035 71.5 66.4999 65.9036 66.4999 59V16C66.4999 9.09644 60.9035 3.5 53.9999 3.5H30.7817Z" fill="black"/>
<path d="M39.4185 23.3739C38.357 22.3123 36.6359 22.3123 35.5744 23.3739C34.5129 24.4354 34.5129 26.1564 35.5744 27.218L42.3193 33.9628H11.5658C10.0646 33.9628 8.84766 35.1798 8.84766 36.681C8.84766 38.1822 10.0646 39.3992 11.5658 39.3992H42.496L35.5744 46.3208C34.5129 47.3823 34.5129 49.1034 35.5744 50.1649C36.6359 51.2264 38.357 51.2264 39.4185 50.1649L50.3539 39.2295C51.7126 37.8708 51.7126 35.6679 50.3539 34.3092L39.4185 23.3739Z" fill="black"/>
</svg>
