<svg width="75" height="75" viewBox="0 0 75 75" fill="none" xmlns="http://www.w3.org/2000/svg">
<path d="M3.5 14C3.5 15.3807 4.61929 16.5 6 16.5H69C70.3807 16.5 71.5 15.3807 71.5 14C71.5 12.6193 70.3807 11.5 69 11.5H6C4.61929 11.5 3.5 12.6193 3.5 14Z" fill="black"/>
<path d="M3.5 36.7872C3.5 38.1679 4.61929 39.2872 6 39.2872H69C70.3807 39.2872 71.5 38.1679 71.5 36.7872C71.5 35.4065 70.3807 34.2872 69 34.2872H6C4.61929 34.2872 3.5 35.4065 3.5 36.7872Z" fill="black"/>
<path d="M3.5 60.9149C3.5 62.2956 4.61929 63.4149 6 63.4149H69C70.3807 63.4149 71.5 62.2956 71.5 60.9149C71.5 59.5342 70.3807 58.4149 69 58.4149H6C4.61929 58.4149 3.5 59.5342 3.5 60.9149Z" fill="black"/>
</svg>
