<svg width="75" height="75" viewBox="0 0 75 75" fill="none" xmlns="http://www.w3.org/2000/svg">
<path fill-rule="evenodd" clip-rule="evenodd" d="M37.5 9C32.8056 9 29 12.8056 29 17.5C29 22.1944 32.8056 26 37.5 26C42.1944 26 46 22.1944 46 17.5C46 12.8056 42.1944 9 37.5 9ZM34 17.5C34 15.567 35.567 14 37.5 14C39.433 14 41 15.567 41 17.5C41 19.433 39.433 21 37.5 21C35.567 21 34 19.433 34 17.5Z" fill="black"/>
<path fill-rule="evenodd" clip-rule="evenodd" d="M37.5 29C32.8056 29 29 32.8056 29 37.5C29 42.1944 32.8056 46 37.5 46C42.1944 46 46 42.1944 46 37.5C46 32.8056 42.1944 29 37.5 29ZM34 37.5C34 35.567 35.567 34 37.5 34C39.433 34 41 35.567 41 37.5C41 39.433 39.433 41 37.5 41C35.567 41 34 39.433 34 37.5Z" fill="black"/>
<path fill-rule="evenodd" clip-rule="evenodd" d="M37.5 50C32.8056 50 29 53.8056 29 58.5C29 63.1944 32.8056 67 37.5 67C42.1944 67 46 63.1944 46 58.5C46 53.8056 42.1944 50 37.5 50ZM34 58.5C34 56.567 35.567 55 37.5 55C39.433 55 41 56.567 41 58.5C41 60.433 39.433 62 37.5 62C35.567 62 34 60.433 34 58.5Z" fill="black"/>
</svg>
