<svg width="75" height="75" viewBox="0 0 75 75" fill="none" xmlns="http://www.w3.org/2000/svg">
<path fill-rule="evenodd" clip-rule="evenodd" d="M63.5783 31.7385C60.1801 28.3405 54.6707 28.3405 51.2726 31.7387C47.8746 35.1369 47.8746 40.6463 51.2728 44.0444C54.671 47.4425 60.1804 47.4424 63.5785 44.0442C66.9766 40.6461 66.9765 35.1366 63.5783 31.7385ZM54.8082 35.2742C56.2537 33.8287 58.5973 33.8286 60.0428 35.2741C61.4884 36.7196 61.4884 39.0632 60.0429 40.5088C58.5974 41.9543 56.2538 41.9543 54.8083 40.5088C53.3628 39.0633 53.3627 36.7197 54.8082 35.2742Z" fill="black"/>
<path fill-rule="evenodd" clip-rule="evenodd" d="M43.3107 31.7388C39.9126 28.3407 34.4031 28.3408 31.005 31.739C27.607 35.1371 27.607 40.6466 31.0052 44.0447C34.4034 47.4427 39.9128 47.4427 43.3109 44.0445C46.709 40.6463 46.7089 35.1369 43.3107 31.7388ZM34.5406 35.2744C35.9861 33.8289 38.3297 33.8289 39.7753 35.2744C41.2208 36.7199 41.2208 39.0635 39.7753 40.509C38.3299 41.9545 35.9862 41.9546 34.5407 40.5091C33.0952 39.0636 33.0951 36.72 34.5406 35.2744Z" fill="black"/>
<path fill-rule="evenodd" clip-rule="evenodd" d="M23.0441 31.7392C19.646 28.3411 14.1365 28.3412 10.7384 31.7393C7.34037 35.1375 7.34045 40.6469 10.7386 44.045C14.1368 47.4431 19.6462 47.443 23.0443 44.0448C26.4424 40.6467 26.4423 35.1372 23.0441 31.7392ZM14.274 35.2748C15.7195 33.8293 18.0631 33.8293 19.5087 35.2747C20.9542 36.7202 20.9542 39.0638 19.5087 40.5094C18.0632 41.9549 15.7196 41.9549 14.2741 40.5094C12.8286 39.064 12.8285 36.7203 14.274 35.2748Z" fill="black"/>
</svg>
