<svg width="75" height="75" viewBox="0 0 75 75" fill="none" xmlns="http://www.w3.org/2000/svg">
<path d="M13.8531 67.9353C13.4506 68.4528 13.5438 69.1987 14.0614 69.6012C14.579 70.0038 15.3249 69.9105 15.7274 69.3929L63.9426 7.39481C64.3451 6.87723 64.2519 6.13134 63.7343 5.72883C63.2167 5.32631 62.4708 5.41958 62.0683 5.93717L13.8531 67.9353Z" fill="black"/>
<path d="M15.6719 32.0766C15.6719 19.4927 25.3992 9.2071 37.5 9.2071C43.0899 9.2071 48.1845 11.4092 52.0392 15.0179L52.7053 15.6415L49.5345 19.7187L48.7339 18.9471C45.7396 16.0617 41.779 14.3313 37.5 14.3313C28.4597 14.3313 20.7961 22.0867 20.7961 32.0766C20.7961 32.2206 20.7977 32.3634 20.8008 32.505L20.8052 32.6976L20.7961 32.8251V46.1356C20.7961 48.5694 20.1841 50.8977 19.0839 52.9462H23.6939L19.7088 58.0704H9.5621C7.80382 58.0704 7.38713 55.6157 9.04626 55.035L9.46096 54.8898C10.0483 54.6843 10.6046 54.4239 11.1251 54.1156C11.5871 53.842 12.0212 53.5306 12.4238 53.1862C14.4441 51.4584 15.6719 48.9029 15.6719 46.1356V32.6432L15.6769 32.5725C15.6735 32.4075 15.6719 32.2422 15.6719 32.0766Z" fill="black"/>
<path d="M55.6411 19.2619L56.376 20.5841C58.2542 23.9635 59.3282 27.8911 59.3282 32.0766C59.3282 32.2471 59.3264 32.4174 59.3228 32.5873L59.3282 32.7148V46.1356C59.3282 48.9029 60.556 51.4584 62.5762 53.1862C62.9789 53.5306 63.4129 53.842 63.875 54.1156C64.3955 54.4239 64.9518 54.6843 65.5391 54.8898L65.9537 55.035C67.6129 55.6157 67.1962 58.0704 65.4379 58.0704H25.4602L29.4452 52.9462H55.9162C54.8159 50.8977 54.2039 48.5694 54.2039 46.1356V32.8218L54.1962 32.6374L54.1992 32.505C54.2024 32.3634 54.2039 32.2206 54.2039 32.0766C54.2039 29.2318 53.581 26.5667 52.482 24.2104L52.2236 23.6564L55.6411 19.2619Z" fill="black"/>
<path d="M45.2209 61.2403C45.748 59.9641 47.2098 59.3569 48.486 59.884C49.7621 60.4111 50.3694 61.8729 49.8423 63.149C45.3467 74.0334 29.9303 74.0332 25.4346 63.149C24.9075 61.8729 25.5147 60.4111 26.7909 59.884C28.067 59.3569 29.5288 59.9641 30.0559 61.2402C32.8492 68.0029 42.4278 68.0028 45.2209 61.2403Z" fill="black"/>
</svg>
