<svg width="75" height="75" viewBox="0 0 75 75" fill="none" xmlns="http://www.w3.org/2000/svg">
<path fill-rule="evenodd" clip-rule="evenodd" d="M3.53927 67.59C2.65859 69.9894 4.98987 72.3207 7.38926 71.44L19.8444 66.8684C21.6153 66.2184 23.2235 65.1907 24.5574 63.8568L63.4282 24.9861C64.2779 24.1364 64.9517 23.1276 65.4112 22.0172C68.656 14.1754 60.8038 6.32325 52.962 9.5681C51.8517 10.0276 50.8428 10.7014 49.9932 11.5511L11.1224 50.4218C9.78852 51.7557 8.7609 53.3639 8.11091 55.1348L3.53927 67.59ZM18.1216 62.1745L9.72147 65.2578L12.8047 56.8577C13.2047 55.7679 13.8371 54.7782 14.6579 53.9574L53.5287 15.0866C53.9136 14.7016 54.3707 14.3964 54.8738 14.1882C58.6011 12.6459 62.3334 16.3781 60.7911 20.1055C60.5829 20.6085 60.2776 21.0656 59.8927 21.4506L21.0219 60.3213C20.201 61.1422 19.2114 61.7745 18.1216 62.1745Z" fill="black"/>
</svg>
