<svg width="75" height="75" viewBox="0 0 75 75" fill="none" xmlns="http://www.w3.org/2000/svg">
<path d="M37.5002 5C36.1571 5 35.0684 6.08876 35.0684 7.43182V35.068H7.43182C6.08876 35.068 5 36.1568 5 37.4998C5 38.8429 6.08876 39.9316 7.43182 39.9316H35.0684V67.5682C35.0684 68.9112 36.1571 70 37.5002 70C38.8432 70 39.932 68.9112 39.932 67.5682V39.9316H67.5682C68.9112 39.9316 70 38.8429 70 37.4998C70 36.1568 68.9112 35.068 67.5682 35.068H39.932V7.43182C39.932 6.08876 38.8432 5 37.5002 5Z" fill="black"/>
</svg>
