<svg width="75" height="75" viewBox="0 0 75 75" fill="none" xmlns="http://www.w3.org/2000/svg">
<path d="M45.4422 22.3269C43.7469 17.8952 39.5221 16.4241 35.9042 17.2001C32.3065 17.9716 29 21.0191 29 25.6981C29 26.8027 29.8954 27.6981 31 27.6981C32.1046 27.6981 33 26.8027 33 25.6981C33 23.1861 34.6996 21.5494 36.743 21.1111C38.7648 20.6775 40.8304 21.4666 41.7062 23.756C42.153 24.9241 42.088 26.225 41.5264 27.3435L37.3461 35.6697C36.3263 37.7009 35.7952 39.9412 35.7952 42.2129V46C35.7952 47.1045 36.6906 48 37.7952 48C38.8998 48 39.7952 47.1045 39.7952 46V42.2129C39.7952 40.5649 40.1805 38.9392 40.9209 37.4645L45.1012 29.1382C46.1667 27.0158 46.2906 24.5449 45.4422 22.3269Z" fill="black"/>
<path d="M37.5756 51.4437C35.4682 51.4437 33.7598 53.1521 33.7598 55.2595C33.7598 57.3669 35.4682 59.0753 37.5756 59.0753C39.683 59.0753 41.3913 57.3669 41.3913 55.2595C41.3913 53.1521 39.683 51.4437 37.5756 51.4437Z" fill="black"/>
<path fill-rule="evenodd" clip-rule="evenodd" d="M37.5 5.5C19.8269 5.5 5.5 19.8269 5.5 37.5C5.5 55.1731 19.8269 69.5 37.5 69.5C55.1731 69.5 69.5 55.1731 69.5 37.5C69.5 19.8269 55.1731 5.5 37.5 5.5ZM9.5 37.5C9.5 22.036 22.036 9.5 37.5 9.5C52.964 9.5 65.5 22.036 65.5 37.5C65.5 52.964 52.964 65.5 37.5 65.5C22.036 65.5 9.5 52.964 9.5 37.5Z" fill="black"/>
</svg>
