<svg width="75" height="75" viewBox="0 0 75 75" fill="none" xmlns="http://www.w3.org/2000/svg">
<path d="M45.4422 26.3269C43.747 21.8952 39.5221 20.4241 35.9042 21.2001C32.3065 21.9716 29 25.0191 29 29.6981C29 30.8027 29.8955 31.6981 31 31.6981C32.1046 31.6981 33 30.8027 33 29.6981C33 27.1861 34.6996 25.5494 36.743 25.1111C38.7649 24.6775 40.8304 25.4666 41.7062 27.756C42.153 28.9241 42.088 30.225 41.5264 31.3435L37.3461 39.6697C36.3263 41.7009 35.7952 43.9412 35.7952 46.2129V50C35.7952 51.1045 36.6906 52 37.7952 52C38.8998 52 39.7952 51.1045 39.7952 50V46.2129C39.7952 44.5649 40.1805 42.9392 40.9209 41.4645L45.1012 33.1382C46.1668 31.0158 46.2906 28.5449 45.4422 26.3269Z" fill="black"/>
<path d="M38.1286 52.5C36.1246 52.5 34.5 54.1246 34.5 56.1286C34.5 58.1326 36.1246 59.7572 38.1286 59.7572C40.1327 59.7572 41.7573 58.1326 41.7573 56.1286C41.7573 54.1246 40.1327 52.5 38.1286 52.5Z" fill="black"/>
<path fill-rule="evenodd" clip-rule="evenodd" d="M42.2639 12.2327C40.133 8.58911 34.8671 8.58911 32.7361 12.2327L6.26252 57.4984C4.11079 61.1776 6.76426 65.8034 11.0264 65.8034H63.9736C68.2358 65.8034 70.8893 61.1776 68.7375 57.4984L42.2639 12.2327ZM36.189 14.252C36.7754 13.2493 38.2246 13.2493 38.8111 14.2521L65.2847 59.5178C65.8769 60.5303 65.1466 61.8034 63.9736 61.8034H11.0264C9.85344 61.8034 9.12318 60.5303 9.71536 59.5178L36.189 14.252Z" fill="black"/>
</svg>
