<svg width="75" height="75" viewBox="0 0 75 75" fill="none" xmlns="http://www.w3.org/2000/svg">
<path fill-rule="evenodd" clip-rule="evenodd" d="M71.4608 67.59C72.3415 69.9894 70.0102 72.3207 67.6108 71.44L55.1556 66.8683C53.3848 66.2183 51.7766 65.1907 50.4427 63.8568L11.5719 24.9861C10.7222 24.1364 10.0484 23.1276 9.58895 22.0172C6.34409 14.1754 14.1963 6.32325 22.0381 9.5681C23.1484 10.0275 24.1573 10.7014 25.0069 11.5511L63.8777 50.4218C65.2116 51.7557 66.2392 53.3639 66.8892 55.1348L71.4608 67.59ZM56.8785 62.1745L65.2786 65.2578L62.1954 56.8576C61.7954 55.7679 61.163 54.7782 60.3422 53.9573L21.4714 15.0866C21.0864 14.7016 20.6294 14.3964 20.1263 14.1882C16.399 12.6459 12.6667 16.3781 14.209 20.1055C14.4172 20.6085 14.7225 21.0656 15.1074 21.4506L53.9782 60.3213C54.799 61.1422 55.7887 61.7745 56.8785 62.1745Z" fill="black"/>
</svg>
