<svg width="75" height="75" viewBox="0 0 75 75" fill="none" xmlns="http://www.w3.org/2000/svg">
<path d="M11.2897 21.5344L10.3073 21.2148L10.6661 22.1835L15.6113 35.5354L15.7321 35.8617H16.0801H52.1798L52.3344 34.8863L11.2897 21.5344ZM16.08 39.7414H15.732L15.6111 40.0678L10.666 53.4197L10.3072 54.3884L11.2895 54.0688L52.3343 40.7169L52.1796 39.7414L16.08 39.7414ZM5.65786 19.8314C4.94075 17.8951 6.77469 15.986 8.73815 16.6247L67.8901 35.8669C68.1044 35.9366 68.3133 36.0272 68.5103 36.1352C69.812 36.8489 69.8424 38.7381 68.5264 39.4592C68.317 39.5739 68.0973 39.6688 67.8703 39.7427L8.73803 58.9785C6.77456 59.6172 4.94062 57.708 5.65774 55.7718L10.8573 41.733C11.7969 39.1961 11.7969 36.4067 10.8573 33.8699L5.65786 19.8314Z" fill="black" stroke="black"/>
</svg>
