<svg width="75" height="75" viewBox="0 0 75 75" fill="none" xmlns="http://www.w3.org/2000/svg">
<path fill-rule="evenodd" clip-rule="evenodd" d="M35.2596 4.5C52.5844 4.5 66.6279 18.5475 66.6279 35.8747C66.6279 40.2731 65.7215 44.4663 64.083 48.2725C63.9849 48.5005 64.0028 48.6918 64.0514 48.8072L70.4516 64.0053C71.6171 66.7729 68.9849 69.6268 66.1323 68.6884L50.4664 63.5352C50.3474 63.4961 50.1554 63.4937 49.9362 63.6099C45.5545 65.934 40.557 67.2494 35.2596 67.2494C17.9349 67.2494 3.89136 53.2019 3.89136 35.8747C3.89136 18.5475 17.9349 4.5 35.2596 4.5ZM61.6279 35.8747C61.6279 21.3079 49.8219 9.5 35.2596 9.5C20.6973 9.5 8.89136 21.3079 8.89136 35.8747C8.89136 50.4416 20.6973 62.2494 35.2596 62.2494C39.7205 62.2494 43.9157 61.1434 47.5934 59.1928C48.9024 58.4985 50.501 58.283 52.0288 58.7856L64.5647 62.9092L59.4433 50.7477C58.8193 49.2658 58.9049 47.6558 59.4905 46.2955C60.8651 43.1022 61.6279 39.5808 61.6279 35.8747Z" fill="black"/>
<path fill-rule="evenodd" clip-rule="evenodd" d="M26.8515 27.8514C27.6325 27.0703 28.8988 27.0703 29.6799 27.8514L44.2111 42.3826C44.9922 43.1637 44.9922 44.43 44.2111 45.211C43.4301 45.9921 42.1637 45.9921 41.3827 45.211L26.8515 30.6798C26.0704 29.8988 26.0704 28.6324 26.8515 27.8514Z" fill="black"/>
<path fill-rule="evenodd" clip-rule="evenodd" d="M26.8514 45.211C26.0704 44.43 26.0704 43.1637 26.8514 42.3826L41.3826 27.8514C42.1637 27.0703 43.43 27.0703 44.2111 27.8514C44.9921 28.6324 44.9921 29.8988 44.2111 30.6798L29.6798 45.211C28.8988 45.9921 27.6325 45.9921 26.8514 45.211Z" fill="black"/>
</svg>
