<svg width="75" height="75" viewBox="0 0 75 75" fill="none" xmlns="http://www.w3.org/2000/svg">
<path d="M64.9999 11.908C69.142 11.908 72.4999 15.2658 72.4999 19.408V65C72.4999 69.1421 69.142 72.5 64.9999 72.5H22.8289C18.6868 72.5 15.3289 69.1421 15.3289 65V34.5066C15.3289 33.1259 16.4482 32.0066 17.8289 32.0066C19.2096 32.0066 20.3289 33.1259 20.3289 34.5066V65C20.3289 66.3807 21.4482 67.5 22.8289 67.5H64.9999C66.3806 67.5 67.4999 66.3807 67.4999 65V19.408C67.4999 18.0272 66.3806 16.908 64.9999 16.908H32.9197C31.539 16.908 30.4197 15.7887 30.4197 14.408C30.4197 13.0272 31.539 11.908 32.9197 11.908H64.9999Z" fill="black"/>
<path fill-rule="evenodd" clip-rule="evenodd" d="M59.9421 55.4846C60.8228 57.884 58.4915 60.2153 56.0921 59.3346L48.7995 56.6579C47.0286 56.0079 45.4204 54.9803 44.0865 53.6464L16.2903 25.8501C15.6463 25.2061 15.1356 24.4415 14.7874 23.6C12.332 17.6662 18.2737 11.7245 24.2075 14.1799C25.049 14.5281 25.8136 15.0388 26.4576 15.6828L54.2539 43.479C55.5878 44.8129 56.6154 46.4211 57.2654 48.192L59.9421 55.4846ZM50.5224 51.9641L53.7599 53.1524L52.5716 49.9149C52.1716 48.8251 51.5392 47.8354 50.7183 47.0146L22.9221 19.2183C22.7428 19.039 22.53 18.8969 22.2957 18.8C20.4764 18.0471 18.6546 19.8689 19.4075 21.6883C19.5044 21.9225 19.6465 22.1353 19.8258 22.3146L47.6221 50.1109C48.4429 50.9317 49.4326 51.5641 50.5224 51.9641Z" fill="black"/>
</svg>
