<svg width="75" height="75" viewBox="0 0 75 75" fill="none" xmlns="http://www.w3.org/2000/svg">
<path d="M22 24C18.6863 24 16 26.6863 16 30C16 33.3137 18.6863 36 22 36C25.3137 36 28 33.3137 28 30C28 26.6863 25.3137 24 22 24Z" fill="black"/>
<path d="M37 24C33.6863 24 31 26.6863 31 30C31 33.3137 33.6863 36 37 36C40.3137 36 43 33.3137 43 30C43 26.6863 40.3137 24 37 24Z" fill="black"/>
<path d="M52 24C48.6863 24 46 26.6863 46 30C46 33.3137 48.6863 36 52 36C55.3137 36 58 33.3137 58 30C58 26.6863 55.3137 24 52 24Z" fill="black"/>
<path fill-rule="evenodd" clip-rule="evenodd" d="M11 6.5C6.85786 6.5 3.5 9.85786 3.5 14V45.5461C3.5 49.6882 6.85786 53.0461 11 53.0461H50.1644C50.8062 53.0461 51.4234 53.2929 51.8882 53.7354L65.1221 66.3336C67.3084 68.415 70.9276 66.9379 71.0332 63.9211L71.5 50.5898V14C71.5 9.85787 68.1422 6.5 64 6.5H11ZM8.5 14C8.5 12.6193 9.61929 11.5 11 11.5H64C65.3807 11.5 66.5 12.6193 66.5 14V50.5024L66.153 60.4117L55.3357 50.1139C53.9412 48.7865 52.0897 48.0461 50.1644 48.0461H11C9.61929 48.0461 8.5 46.9268 8.5 45.5461V14Z" fill="black"/>
</svg>
