<svg width="75" height="75" viewBox="0 0 75 75" fill="none" xmlns="http://www.w3.org/2000/svg">
<path fill-rule="evenodd" clip-rule="evenodd" d="M72.4608 67.59C73.3415 69.9894 71.0102 72.3206 68.6108 71.4399L58.1069 67.5845C58.6531 68.0431 59.0002 68.731 59.0002 69.5C59.0002 70.8807 57.881 72 56.5002 72H15.0002C13.6195 72 12.5002 70.8807 12.5002 69.5C12.5002 68.1193 13.6195 67 15.0002 67H56.5002C56.505 67 56.5097 67 56.5145 67L56.1556 66.8683C54.3848 66.2183 52.7766 65.1907 51.4427 63.8568L12.5719 24.9861C11.7222 24.1364 11.0484 23.1275 10.5889 22.0172C7.34409 14.1754 15.1963 6.32322 23.0381 9.56807C24.1484 10.0275 25.1573 10.7013 26.0069 11.551L64.8777 50.4218C66.2116 51.7557 67.2392 53.3639 67.8892 55.1348L72.4608 67.59ZM57.8785 62.1745L66.2786 65.2577L63.1954 56.8576C62.7954 55.7678 62.163 54.7782 61.3422 53.9573L22.4714 15.0866C22.0864 14.7016 21.6294 14.3963 21.1263 14.1882C17.399 12.6458 13.6667 16.3781 15.209 20.1054C15.4172 20.6085 15.7225 21.0656 16.1074 21.4505L54.9782 60.3213C55.799 61.1421 56.7887 61.7745 57.8785 62.1745Z" fill="black"/>
</svg>
