<svg width="75" height="75" viewBox="0 0 75 75" fill="none" xmlns="http://www.w3.org/2000/svg">
<path fill-rule="evenodd" clip-rule="evenodd" d="M35.2596 4.5C52.5844 4.5 66.6279 18.5475 66.6279 35.8747C66.6279 40.2731 65.7215 44.4663 64.083 48.2725C63.9849 48.5005 64.0028 48.6918 64.0514 48.8072L70.4516 64.0053C71.6171 66.7729 68.9849 69.6268 66.1323 68.6884L50.4664 63.5352C50.3474 63.4961 50.1554 63.4937 49.9362 63.6099C45.5545 65.934 40.557 67.2494 35.2596 67.2494C17.9349 67.2494 3.89136 53.2019 3.89136 35.8747C3.89136 18.5475 17.9349 4.5 35.2596 4.5ZM61.6279 35.8747C61.6279 21.3079 49.8219 9.5 35.2596 9.5C20.6973 9.5 8.89136 21.3079 8.89136 35.8747C8.89136 50.4416 20.6973 62.2494 35.2596 62.2494C39.7205 62.2494 43.9157 61.1434 47.5934 59.1928C48.9024 58.4985 50.501 58.283 52.0288 58.7856L64.5647 62.9092L59.4433 50.7477C58.8193 49.2658 58.9049 47.6558 59.4905 46.2955C60.8651 43.1022 61.6279 39.5808 61.6279 35.8747Z" fill="black"/>
<path fill-rule="evenodd" clip-rule="evenodd" d="M26.9017 44.1214C26.1207 43.3404 26.1207 42.0741 26.9017 41.293L41.2701 26.9246C42.0512 26.1435 43.3175 26.1435 44.0986 26.9246C44.8796 27.7056 44.8796 28.972 44.0986 29.753L29.7301 44.1214C28.9491 44.9025 27.6828 44.9025 26.9017 44.1214Z" fill="black"/>
<path fill-rule="evenodd" clip-rule="evenodd" d="M35.5 27C30.8056 27 27 30.8056 27 35.5C27 40.1944 30.8056 44 35.5 44C40.1944 44 44 40.1944 44 35.5C44 30.8056 40.1944 27 35.5 27ZM23 35.5C23 28.5964 28.5964 23 35.5 23C42.4036 23 48 28.5964 48 35.5C48 42.4036 42.4036 48 35.5 48C28.5964 48 23 42.4036 23 35.5Z" fill="black"/>
</svg>
