<svg width="75" height="75" viewBox="0 0 75 75" fill="none" xmlns="http://www.w3.org/2000/svg">
<path fill-rule="evenodd" clip-rule="evenodd" d="M11 6.5C6.85786 6.5 3.5 9.85786 3.5 14V45.5461C3.5 49.6882 6.85786 53.0461 11 53.0461H50.1644C50.8062 53.0461 51.4234 53.2929 51.8882 53.7354L65.1221 66.3336C67.3084 68.4149 70.9276 66.9379 71.0332 63.9211L71.5 50.5898V14C71.5 9.85787 68.1421 6.5 64 6.5H11ZM8.5 14C8.5 12.6193 9.61929 11.5 11 11.5H64C65.3807 11.5 66.5 12.6193 66.5 14V50.5024L66.153 60.4117L55.3357 50.1139C53.9412 48.7865 52.0897 48.0461 50.1644 48.0461H11C9.61929 48.0461 8.5 46.9268 8.5 45.5461V14Z" fill="black"/>
<path fill-rule="evenodd" clip-rule="evenodd" d="M27.8515 21.8514C28.6325 21.0704 29.8988 21.0704 30.6799 21.8514L45.2111 36.3826C45.9922 37.1637 45.9922 38.43 45.2111 39.2111C44.4301 39.9921 43.1637 39.9921 42.3827 39.2111L27.8515 24.6798C27.0704 23.8988 27.0704 22.6325 27.8515 21.8514Z" fill="black"/>
<path fill-rule="evenodd" clip-rule="evenodd" d="M27.8514 39.211C27.0704 38.43 27.0704 37.1637 27.8514 36.3826L42.3826 21.8514C43.1637 21.0703 44.43 21.0703 45.2111 21.8514C45.9921 22.6324 45.9921 23.8988 45.2111 24.6798L30.6798 39.211C29.8988 39.9921 28.6325 39.9921 27.8514 39.211Z" fill="black"/>
</svg>
