<svg width="75" height="75" viewBox="0 0 75 75" fill="none" xmlns="http://www.w3.org/2000/svg">
<path fill-rule="evenodd" clip-rule="evenodd" d="M11 6.5C6.85786 6.5 3.5 9.85786 3.5 14V45.5461C3.5 49.6882 6.85786 53.0461 11 53.0461H50.1644C50.8062 53.0461 51.4234 53.2929 51.8882 53.7354L65.1221 66.3336C67.3084 68.4149 70.9276 66.9379 71.0332 63.9211L71.5 50.5898V14C71.5 9.85787 68.1421 6.5 64 6.5H11ZM8.5 14C8.5 12.6193 9.61929 11.5 11 11.5H64C65.3807 11.5 66.5 12.6193 66.5 14V50.5024L66.153 60.4117L55.3357 50.1139C53.9412 48.7865 52.0897 48.0461 50.1644 48.0461H11C9.61929 48.0461 8.5 46.9268 8.5 45.5461V14Z" fill="black"/>
<path fill-rule="evenodd" clip-rule="evenodd" d="M28.9017 39.1214C28.1207 38.3404 28.1207 37.0741 28.9017 36.293L43.2701 21.9246C44.0512 21.1435 45.3175 21.1435 46.0986 21.9246C46.8796 22.7056 46.8796 23.972 46.0986 24.753L31.7301 39.1214C30.9491 39.9025 29.6828 39.9025 28.9017 39.1214Z" fill="black"/>
<path fill-rule="evenodd" clip-rule="evenodd" d="M37.5 22C32.8056 22 29 25.8056 29 30.5C29 35.1944 32.8056 39 37.5 39C42.1944 39 46 35.1944 46 30.5C46 25.8056 42.1944 22 37.5 22ZM25 30.5C25 23.5964 30.5964 18 37.5 18C44.4036 18 50 23.5964 50 30.5C50 37.4036 44.4036 43 37.5 43C30.5964 43 25 37.4036 25 30.5Z" fill="black"/>
</svg>
