<svg width="75" height="75" viewBox="0 0 75 75" fill="none" xmlns="http://www.w3.org/2000/svg">
<path d="M14.9883 37.0114L14.0677 37.48L15.0063 37.9113L27.9363 43.8521L28.2525 43.9974L28.4986 43.7513L54.009 18.2409L53.4286 17.4418L14.9883 37.0114ZM65.1181 7.13907L64.8912 6.69349L65.1181 7.13907C65.3189 7.03686 65.5305 6.95324 65.7461 6.89034C67.1706 6.47476 68.5275 7.78857 68.107 9.22848C68.0401 9.45759 67.9519 9.67994 67.8436 9.89263L68.2892 10.1195L67.8436 9.89264L39.6002 65.3708C38.6829 67.1726 36.091 67.1205 35.2469 65.2833L28.9099 51.491C27.8112 49.0996 25.8923 47.1808 23.5009 46.082L9.70896 39.7452C7.87172 38.901 7.81962 36.3092 9.62145 35.3919L65.1181 7.13907ZM31.2408 46.4937L30.9947 46.7398L31.14 47.056L37.0808 59.9859L37.5121 60.9246L37.9807 60.004L57.5503 21.5637L56.7512 20.9833L31.2408 46.4937Z" fill="black" stroke="black"/>
</svg>
