<svg width="75" height="75" viewBox="0 0 75 75" fill="none" xmlns="http://www.w3.org/2000/svg">
<path fill-rule="evenodd" clip-rule="evenodd" d="M24.4375 5C19.2253 5 15 9.22531 15 14.4375C15 19.6497 19.2253 23.875 24.4375 23.875C26.522 23.875 28.4487 23.1992 30.0104 22.0547L42.9391 32.8285C42.3374 34.0707 42 35.4647 42 36.9375C42 38.5829 42.4211 40.13 43.1614 41.4769L29.9659 52.9129C28.4122 51.7881 26.5023 51.125 24.4375 51.125C19.2253 51.125 15 55.3503 15 60.5625C15 65.7747 19.2253 70 24.4375 70C29.6497 70 33.875 65.7747 33.875 60.5625C33.875 59.23 33.5988 57.962 33.1007 56.8126L46.6483 45.0713C48.0523 45.8997 49.6894 46.375 51.4375 46.375C56.6497 46.375 60.875 42.1497 60.875 36.9375C60.875 31.7253 56.6497 27.5 51.4375 27.5C49.5136 27.5 47.7242 28.0757 46.2321 29.0642L33.1216 18.1388C33.6066 17.0023 33.875 15.7512 33.875 14.4375C33.875 9.22531 29.6497 5 24.4375 5ZM20 14.4375C20 11.9867 21.9867 10 24.4375 10C26.8883 10 28.875 11.9867 28.875 14.4375C28.875 16.8883 26.8883 18.875 24.4375 18.875C21.9867 18.875 20 16.8883 20 14.4375ZM47 36.9375C47 34.4867 48.9867 32.5 51.4375 32.5C53.8883 32.5 55.875 34.4867 55.875 36.9375C55.875 39.3883 53.8883 41.375 51.4375 41.375C48.9867 41.375 47 39.3883 47 36.9375ZM20 60.5625C20 58.1117 21.9867 56.125 24.4375 56.125C26.8883 56.125 28.875 58.1117 28.875 60.5625C28.875 63.0133 26.8883 65 24.4375 65C21.9867 65 20 63.0133 20 60.5625Z" fill="black"/>
</svg>
