<svg width="75" height="75" viewBox="0 0 75 75" fill="none" xmlns="http://www.w3.org/2000/svg">
<path fill-rule="evenodd" clip-rule="evenodd" d="M25.5 9C20.8056 9 17 12.8056 17 17.5C17 22.1944 20.8056 26 25.5 26C30.1944 26 34 22.1944 34 17.5C34 12.8056 30.1944 9 25.5 9ZM22 17.5C22 15.567 23.567 14 25.5 14C27.433 14 29 15.567 29 17.5C29 19.433 27.433 21 25.5 21C23.567 21 22 19.433 22 17.5Z" fill="black"/>
<path fill-rule="evenodd" clip-rule="evenodd" d="M49.5 29C44.8056 29 41 32.8056 41 37.5C41 42.1944 44.8056 46 49.5 46C54.1944 46 58 42.1944 58 37.5C58 32.8056 54.1944 29 49.5 29ZM46 37.5C46 35.567 47.567 34 49.5 34C51.433 34 53 35.567 53 37.5C53 39.433 51.433 41 49.5 41C47.567 41 46 39.433 46 37.5Z" fill="black"/>
<path fill-rule="evenodd" clip-rule="evenodd" d="M25.5 50C20.8056 50 17 53.8056 17 58.5C17 63.1944 20.8056 67 25.5 67C30.1944 67 34 63.1944 34 58.5C34 53.8056 30.1944 50 25.5 50ZM22 58.5C22 56.567 23.567 55 25.5 55C27.433 55 29 56.567 29 58.5C29 60.433 27.433 62 25.5 62C23.567 62 22 60.433 22 58.5Z" fill="black"/>
</svg>
