<svg width="75" height="75" viewBox="0 0 75 75" fill="none" xmlns="http://www.w3.org/2000/svg">
<path fill-rule="evenodd" clip-rule="evenodd" d="M64 6.5C68.1421 6.5 71.5 9.85786 71.5 14V45.5461C71.5 49.6882 68.1421 53.0461 64 53.0461H24.8356C24.1938 53.0461 23.5766 53.2929 23.1118 53.7354L9.8779 66.3336C7.6916 68.4149 4.07243 66.9379 3.9668 63.9211L3.5 50.5898V14C3.5 9.85787 6.85786 6.5 11 6.5H64ZM66.5 14C66.5 12.6193 65.3807 11.5 64 11.5H11C9.61929 11.5 8.5 12.6193 8.5 14V50.5024L8.84698 60.4117L19.6643 50.1139C21.0588 48.7865 22.9103 48.0461 24.8356 48.0461H64C65.3807 48.0461 66.5 46.9268 66.5 45.5461V14Z" fill="black"/>
</svg>
