<svg width="75" height="75" viewBox="0 0 75 75" fill="none" xmlns="http://www.w3.org/2000/svg">
<path fill-rule="evenodd" clip-rule="evenodd" d="M64 6.5C68.1421 6.5 71.5 9.85786 71.5 14V45.5461C71.5 49.6882 68.1421 53.0461 64 53.0461H24.8356C24.1938 53.0461 23.5766 53.2929 23.1118 53.7354L9.8779 66.3336C7.6916 68.4149 4.07243 66.9379 3.9668 63.9211L3.5 50.5898V14C3.5 9.85787 6.85786 6.5 11 6.5H64ZM66.5 14C66.5 12.6193 65.3807 11.5 64 11.5H11C9.61929 11.5 8.5 12.6193 8.5 14V50.5024L8.84698 60.4117L19.6643 50.1139C21.0588 48.7865 22.9103 48.0461 24.8356 48.0461H64C65.3807 48.0461 66.5 46.9268 66.5 45.5461V14Z" fill="black"/>
<path fill-rule="evenodd" clip-rule="evenodd" d="M27.8515 21.8514C28.6325 21.0704 29.8988 21.0704 30.6799 21.8514L45.2111 36.3826C45.9922 37.1637 45.9922 38.43 45.2111 39.2111C44.4301 39.9921 43.1637 39.9921 42.3827 39.2111L27.8515 24.6798C27.0704 23.8988 27.0704 22.6325 27.8515 21.8514Z" fill="black"/>
<path fill-rule="evenodd" clip-rule="evenodd" d="M27.8514 39.211C27.0704 38.43 27.0704 37.1637 27.8514 36.3826L42.3826 21.8514C43.1637 21.0703 44.43 21.0703 45.2111 21.8514C45.9921 22.6324 45.9921 23.8988 45.2111 24.6798L30.6798 39.211C29.8988 39.9921 28.6325 39.9921 27.8514 39.211Z" fill="black"/>
</svg>
