<svg width="75" height="75" viewBox="0 0 75 75" fill="none" xmlns="http://www.w3.org/2000/svg">
<path d="M22 24C18.6863 24 16 26.6863 16 30C16 33.3137 18.6863 36 22 36C25.3137 36 28 33.3137 28 30C28 26.6863 25.3137 24 22 24Z" fill="black"/>
<path d="M37 24C33.6863 24 31 26.6863 31 30C31 33.3137 33.6863 36 37 36C40.3137 36 43 33.3137 43 30C43 26.6863 40.3137 24 37 24Z" fill="black"/>
<path d="M52 24C48.6863 24 46 26.6863 46 30C46 33.3137 48.6863 36 52 36C55.3137 36 58 33.3137 58 30C58 26.6863 55.3137 24 52 24Z" fill="black"/>
<path fill-rule="evenodd" clip-rule="evenodd" d="M11 6.5C6.85786 6.5 3.5 9.85787 3.5 14V50.5898L3.9668 63.9211C4.07243 66.9379 7.6916 68.415 9.8779 66.3336L23.1118 53.7354C23.5766 53.2929 24.1938 53.0461 24.8356 53.0461H64C68.1421 53.0461 71.5 49.6882 71.5 45.5461V14C71.5 9.85786 68.1421 6.5 64 6.5H11ZM8.5 14C8.5 12.6193 9.61929 11.5 11 11.5H64C65.3807 11.5 66.5 12.6193 66.5 14V45.5461C66.5 46.9268 65.3807 48.0461 64 48.0461H24.8356C22.9103 48.0461 21.0588 48.7865 19.6643 50.1139L8.84698 60.4117L8.5 50.5023V14Z" fill="black"/>
</svg>
