<svg width="75" height="75" viewBox="0 0 75 75" fill="none" xmlns="http://www.w3.org/2000/svg">
<path fill-rule="evenodd" clip-rule="evenodd" d="M64 6.5C68.1421 6.5 71.5 9.85786 71.5 14V45.5461C71.5 49.6882 68.1421 53.0461 64 53.0461H24.8356C24.1938 53.0461 23.5766 53.2929 23.1118 53.7354L9.8779 66.3336C7.6916 68.4149 4.07243 66.9379 3.9668 63.9211L3.5 50.5898V14C3.5 9.85787 6.85786 6.5 11 6.5H64ZM66.5 14C66.5 12.6193 65.3807 11.5 64 11.5H11C9.61929 11.5 8.5 12.6193 8.5 14V50.5024L8.84698 60.4117L19.6643 50.1139C21.0588 48.7865 22.9103 48.0461 24.8356 48.0461H64C65.3807 48.0461 66.5 46.9268 66.5 45.5461V14Z" fill="black"/>
<path fill-rule="evenodd" clip-rule="evenodd" d="M28.9017 39.1214C28.1207 38.3404 28.1207 37.0741 28.9017 36.293L43.2701 21.9246C44.0512 21.1435 45.3175 21.1435 46.0986 21.9246C46.8796 22.7056 46.8796 23.972 46.0986 24.753L31.7301 39.1214C30.9491 39.9025 29.6828 39.9025 28.9017 39.1214Z" fill="black"/>
<path fill-rule="evenodd" clip-rule="evenodd" d="M37.5 22C32.8056 22 29 25.8056 29 30.5C29 35.1944 32.8056 39 37.5 39C42.1944 39 46 35.1944 46 30.5C46 25.8056 42.1944 22 37.5 22ZM25 30.5C25 23.5964 30.5964 18 37.5 18C44.4036 18 50 23.5964 50 30.5C50 37.4036 44.4036 43 37.5 43C30.5964 43 25 37.4036 25 30.5Z" fill="black"/>
</svg>
