<svg width="75" height="75" viewBox="0 0 75 75" fill="none" xmlns="http://www.w3.org/2000/svg">
<path d="M36.3408 14.7296L25.2728 25.7976C24.3941 26.6763 22.9695 26.6763 22.0908 25.7976C21.2121 24.9189 21.2121 23.4943 22.0908 22.6156L36.4108 8.2956C37.6787 7.02777 39.7342 7.02777 41.0021 8.2956L55.3221 22.6156C56.2008 23.4943 56.2008 24.9189 55.3221 25.7976C54.4434 26.6763 53.0188 26.6763 52.1402 25.7976L40.8407 14.4982V58.1631C40.8407 59.4058 39.8334 60.4131 38.5907 60.4131C37.3481 60.4131 36.3408 59.4058 36.3408 58.1631V14.7296Z" fill="black"/>
<path fill-rule="evenodd" clip-rule="evenodd" d="M10 67.5C10 66.6716 10.6716 66 11.5 66H63.9996C64.828 66 65.4996 66.6716 65.4996 67.5C65.4996 68.3285 64.828 69 63.9996 69H11.5C10.6716 69 10 68.3285 10 67.5Z" fill="black"/>
</svg>
