<svg width="75" height="75" viewBox="0 0 75 75" fill="none" xmlns="http://www.w3.org/2000/svg">
<path fill-rule="evenodd" clip-rule="evenodd" d="M37.7155 14C30.8905 14 25.3578 19.5327 25.3578 26.3576C25.3578 33.1826 30.8905 38.7153 37.7155 38.7153C44.5404 38.7153 50.0731 33.1826 50.0731 26.3576C50.0731 19.5327 44.5404 14 37.7155 14ZM30.3578 26.3576C30.3578 22.2941 33.6519 19 37.7155 19C41.779 19 45.0731 22.2941 45.0731 26.3576C45.0731 30.4212 41.779 33.7153 37.7155 33.7153C33.6519 33.7153 30.3578 30.4212 30.3578 26.3576Z" fill="black"/>
<path fill-rule="evenodd" clip-rule="evenodd" d="M37.5 4C19.5507 4 5 18.5507 5 36.5C5 45.355 8.54268 53.3846 14.2858 59.2453C15.3693 60.3511 16.5313 61.3798 17.7627 62.3224C17.8594 62.3964 17.9566 62.4699 18.0541 62.5429C20.0862 64.0626 22.3024 65.3502 24.6635 66.3663C28.6025 68.0615 32.943 69 37.5 69C42.0731 69 46.4281 68.0549 50.3782 66.3484C52.7012 65.3448 54.8835 64.0782 56.8877 62.5863C58.1604 61.6389 59.3614 60.6006 60.481 59.481C66.3612 53.6007 70 45.4744 70 36.5C70 18.5507 55.4493 4 37.5 4ZM10 36.5C10 21.3122 22.3122 9 37.5 9C52.6878 9 65 21.3122 65 36.5C65 42.4419 63.1165 47.9418 59.9133 52.438C57.6191 45.98 50.9573 41.392 43.2065 41.392H31.556C23.8936 41.392 17.2972 45.8749 14.9302 52.216C11.8222 47.7613 10 42.3445 10 36.5ZM37.5 64C30.382 64 23.8974 61.2969 19.0135 56.8595C19.3092 51.3611 24.4549 46.392 31.556 46.392H43.2065C50.3963 46.392 55.5805 51.4852 55.7578 57.065C50.901 61.3802 44.5075 64 37.5 64Z" fill="black"/>
</svg>
