<svg width="75" height="75" viewBox="0 0 75 75" fill="none" xmlns="http://www.w3.org/2000/svg">
<path fill-rule="evenodd" clip-rule="evenodd" d="M50.5613 10C44.9173 10 40.3419 14.5754 40.3419 20.2195C40.3419 25.8636 44.9173 30.439 50.5613 30.439C56.2054 30.439 60.7808 25.8636 60.7808 20.2195C60.7808 14.5754 56.2054 10 50.5613 10ZM44.8619 20.2195C44.8619 17.0717 47.4136 14.52 50.5613 14.52C53.7091 14.52 56.2608 17.0717 56.2608 20.2195C56.2608 23.3672 53.7091 25.919 50.5613 25.919C47.4136 25.919 44.8619 23.3672 44.8619 20.2195Z" fill="black"/>
<path fill-rule="evenodd" clip-rule="evenodd" d="M26.7445 13.073C20.2518 13.073 14.9884 18.3364 14.9884 24.8291C14.9884 31.3218 20.2518 36.5851 26.7445 36.5851C33.2372 36.5851 38.5005 31.3218 38.5005 24.8291C38.5005 18.3364 33.2372 13.073 26.7445 13.073ZM19.5084 24.8291C19.5084 20.8327 22.7481 17.593 26.7445 17.593C30.7409 17.593 33.9806 20.8327 33.9806 24.8291C33.9806 28.8254 30.7409 32.0651 26.7445 32.0651C22.7481 32.0651 19.5084 28.8254 19.5084 24.8291Z" fill="black"/>
<path fill-rule="evenodd" clip-rule="evenodd" d="M46.2459 31.5119C43.7288 31.5119 41.3579 32.1153 39.2952 33.179C38.6383 33.5178 38.1658 34.0266 37.9213 34.65C37.6812 35.2622 37.6902 35.909 37.8536 36.4934C38.1752 37.6432 39.1223 38.6783 40.3868 39.1393C46.2535 41.278 50.3293 46.5176 50.3293 52.5692C50.3293 53.925 51.4284 55.0241 52.7841 55.0241H64.3498C67.4703 55.0241 70 52.4944 70 49.3739V44.87C70 37.4208 63.4982 31.5119 55.6444 31.5119H46.2459ZM54.7311 50.5041C54.013 44.2708 50.0912 39.0539 44.7064 36.1394C45.2066 36.0688 45.7207 36.0319 46.2459 36.0319H55.6444C61.3332 36.0319 65.48 40.236 65.48 44.87V49.3739C65.48 49.9981 64.974 50.5041 64.3498 50.5041H54.7311Z" fill="black"/>
<path fill-rule="evenodd" clip-rule="evenodd" d="M21.3448 38.4266C12.3975 38.4266 5 45.1211 5 53.5501V56.4519C5 61.1794 8.83243 65.0119 13.56 65.0119H39.9277C44.6553 65.0119 48.4877 61.1795 48.4877 56.4519V53.5501C48.4877 45.1211 41.0902 38.4266 32.1429 38.4266H21.3448ZM9.52 53.5501C9.52 47.9584 14.5386 42.9466 21.3448 42.9466H32.1429C38.9491 42.9466 43.9677 47.9584 43.9677 53.5501V56.4519C43.9677 58.6831 42.1589 60.4919 39.9277 60.4919H13.56C11.3288 60.4919 9.52 58.6831 9.52 56.4519V53.5501Z" fill="black"/>
</svg>
