<svg width="75" height="75" viewBox="0 0 75 75" fill="none" xmlns="http://www.w3.org/2000/svg">
<path fill-rule="evenodd" clip-rule="evenodd" d="M30.7752 5C22.8292 5 16.3877 11.4415 16.3877 19.3875C16.3877 27.3335 22.8292 33.775 30.7752 33.775C38.7212 33.775 45.1627 27.3335 45.1627 19.3875C45.1627 11.4415 38.7212 5 30.7752 5ZM21.3877 19.3875C21.3877 14.2029 25.5906 10 30.7752 10C35.9598 10 40.1627 14.2029 40.1627 19.3875C40.1627 24.5721 35.9598 28.775 30.7752 28.775C25.5906 28.775 21.3877 24.5721 21.3877 19.3875Z" fill="black"/>
<path fill-rule="evenodd" clip-rule="evenodd" d="M23.5149 37.2875C12.2821 37.2875 3 45.542 3 55.9309V60C3 65.5229 7.47715 70 13 70H47.7625C53.2853 70 57.7625 65.5229 57.7625 60V55.9309C57.7625 45.542 48.4804 37.2875 37.2476 37.2875H23.5149ZM8 55.9309C8 48.7605 14.563 42.2875 23.5149 42.2875H37.2476C46.1994 42.2875 52.7625 48.7605 52.7625 55.9309V60C52.7625 62.7614 50.5239 65 47.7625 65H13C10.2386 65 8 62.7614 8 60V55.9309Z" fill="black"/>
<path fill-rule="evenodd" clip-rule="evenodd" d="M58.5 19C52.1487 19 47 24.1487 47 30.5C47 36.8513 52.1487 42 58.5 42C64.8513 42 70 36.8513 70 30.5C70 24.1487 64.8513 19 58.5 19ZM62.2113 23.9811C61.1169 23.3567 59.8501 23 58.5 23C54.3579 23 51 26.3579 51 30.5C51 31.8501 51.3567 33.1169 51.9811 34.2113L62.2113 23.9811ZM65.034 26.8153L54.8153 37.034C55.9036 37.649 57.1608 38 58.5 38C62.6421 38 66 34.6421 66 30.5C66 29.1608 65.649 27.9036 65.034 26.8153Z" fill="black"/>
</svg>
