<svg width="75" height="75" viewBox="0 0 75 75" fill="none" xmlns="http://www.w3.org/2000/svg">
<path fill-rule="evenodd" clip-rule="evenodd" d="M33.7752 5C25.8292 5 19.3877 11.4415 19.3877 19.3875C19.3877 27.3335 25.8292 33.775 33.7752 33.775C41.7212 33.775 48.1627 27.3335 48.1627 19.3875C48.1627 11.4415 41.7212 5 33.7752 5ZM24.3877 19.3875C24.3877 14.2029 28.5906 10 33.7752 10C38.9598 10 43.1627 14.2029 43.1627 19.3875C43.1627 24.5721 38.9598 28.775 33.7752 28.775C28.5906 28.775 24.3877 24.5721 24.3877 19.3875Z" fill="black"/>
<path fill-rule="evenodd" clip-rule="evenodd" d="M26.5149 37.2875C15.2821 37.2875 6 45.542 6 55.9309V60C6 65.5229 10.4772 70 16 70H50.7625C56.2853 70 60.7625 65.5229 60.7625 60V55.9309C60.7625 45.542 51.4804 37.2875 40.2476 37.2875H26.5149ZM11 55.9309C11 48.7605 17.563 42.2875 26.5149 42.2875H40.2476C49.1994 42.2875 55.7625 48.7605 55.7625 55.9309V60C55.7625 62.7614 53.5239 65 50.7625 65H16C13.2386 65 11 62.7614 11 60V55.9309Z" fill="black"/>
<path d="M49 31.5C49 32.6046 49.8954 33.5 51 33.5H68C69.1046 33.5 70 32.6046 70 31.5C70 30.3954 69.1046 29.5 68 29.5H51C49.8954 29.5 49 30.3954 49 31.5Z" fill="black"/>
</svg>
