<svg width="75" height="75" viewBox="0 0 75 75" fill="none" xmlns="http://www.w3.org/2000/svg">
<path fill-rule="evenodd" clip-rule="evenodd" d="M37.9206 6C30.2191 6 23.9758 12.2433 23.9758 19.9448C23.9758 27.6463 30.2191 33.8896 37.9206 33.8896C45.6221 33.8896 51.8654 27.6463 51.8654 19.9448C51.8654 12.2433 45.6221 6 37.9206 6ZM28.8219 19.9448C28.8219 14.9198 32.8955 10.8462 37.9206 10.8462C42.9456 10.8462 47.0192 14.9198 47.0192 19.9448C47.0192 24.9698 42.9456 29.0434 37.9206 29.0434C32.8955 29.0434 28.8219 24.9698 28.8219 19.9448Z" fill="black"/>
<path fill-rule="evenodd" clip-rule="evenodd" d="M30.8836 37.2941C19.9965 37.2941 11 45.2945 11 55.3638V59.3077C11 64.6606 15.3394 69 20.6923 69H54.3851C59.7381 69 64.0774 64.6606 64.0774 59.3077V55.3638C64.0774 45.2945 55.081 37.2941 44.1938 37.2941H30.8836ZM15.8462 55.3638C15.8462 48.4141 22.2072 42.1402 30.8836 42.1402H44.1938C52.8702 42.1402 59.2313 48.4141 59.2313 55.3638V59.3077C59.2313 61.9842 57.0616 64.1538 54.3851 64.1538H20.6923C18.0159 64.1538 15.8462 61.9841 15.8462 59.3077V55.3638Z" fill="black"/>
</svg>
