<svg width="75" height="75" viewBox="0 0 75 75" fill="none" xmlns="http://www.w3.org/2000/svg">
<path fill-rule="evenodd" clip-rule="evenodd" d="M30.7752 5C22.8292 5 16.3877 11.4415 16.3877 19.3875C16.3877 27.3335 22.8292 33.775 30.7752 33.775C38.7212 33.775 45.1627 27.3335 45.1627 19.3875C45.1627 11.4415 38.7212 5 30.7752 5ZM21.3877 19.3875C21.3877 14.2029 25.5906 10 30.7752 10C35.9597 10 40.1627 14.2029 40.1627 19.3875C40.1627 24.5721 35.9597 28.775 30.7752 28.775C25.5906 28.775 21.3877 24.5721 21.3877 19.3875Z" fill="black"/>
<path fill-rule="evenodd" clip-rule="evenodd" d="M23.5149 37.2875C12.2821 37.2875 3 45.542 3 55.9308V60C3 65.5228 7.47715 70 13 70H47.7625C53.2853 70 57.7625 65.5228 57.7625 60V55.9308C57.7625 45.542 48.4804 37.2875 37.2476 37.2875H23.5149ZM8 55.9308C8 48.7605 14.563 42.2875 23.5149 42.2875H37.2476C46.1994 42.2875 52.7625 48.7605 52.7625 55.9308V60C52.7625 62.7614 50.5239 65 47.7625 65H13C10.2386 65 8 62.7614 8 60V55.9308Z" fill="black"/>
<path d="M50.5963 22.5959C49.8152 23.3769 49.8152 24.6433 50.5963 25.4243L55.1924 30.0205L50.5963 34.6167C49.8152 35.3978 49.8152 36.6641 50.5963 37.4451C51.3773 38.2262 52.6436 38.2262 53.4247 37.4451L58.0209 32.8489L62.6171 37.4451C63.3981 38.2262 64.6644 38.2262 65.4455 37.4451C66.2265 36.6641 66.2265 35.3978 65.4455 34.6167L60.8493 30.0205L65.4455 25.4243C66.2265 24.6433 66.2265 23.3769 65.4455 22.5959C64.6644 21.8148 63.3981 21.8148 62.6171 22.5959L58.0209 27.1921L53.4247 22.5959C52.6436 21.8148 51.3773 21.8148 50.5963 22.5959Z" fill="black"/>
</svg>
