<svg width="75" height="75" viewBox="0 0 75 75" fill="none" xmlns="http://www.w3.org/2000/svg">
<path fill-rule="evenodd" clip-rule="evenodd" d="M2.53927 67.59C1.65859 69.9894 3.98987 72.3206 6.38926 71.4399L16.8932 67.5845C16.347 68.0431 15.9998 68.731 15.9998 69.5C15.9998 70.8807 17.1191 72 18.4998 72H59.9998C61.3806 72 62.4998 70.8807 62.4998 69.5C62.4998 68.1193 61.3806 67 59.9998 67H18.4998C18.4951 67 18.4904 67 18.4856 67L18.8444 66.8683C20.6153 66.2183 22.2235 65.1907 23.5574 63.8568L62.4282 24.9861C63.2779 24.1364 63.9517 23.1275 64.4111 22.0172C67.656 14.1754 59.8038 6.32322 51.962 9.56807C50.8517 10.0275 49.8428 10.7013 48.9931 11.551L10.1224 50.4218C8.78852 51.7557 7.7609 53.3639 7.1109 55.1348L2.53927 67.59ZM17.1216 62.1745L8.72147 65.2577L11.8047 56.8576C12.2047 55.7678 12.8371 54.7782 13.6579 53.9573L52.5287 15.0866C52.9136 14.7016 53.3707 14.3963 53.8738 14.1882C57.6011 12.6458 61.3334 16.3781 59.7911 20.1054C59.5829 20.6085 59.2776 21.0656 58.8926 21.4505L20.0219 60.3213C19.201 61.1421 18.2114 61.7745 17.1216 62.1745Z" fill="black"/>
</svg>
