<svg width="75" height="75" viewBox="0 0 75 75" fill="none" xmlns="http://www.w3.org/2000/svg">
<g clip-path="url(#clip0)">
<path d="M13.5062 12.9584C12.5298 13.9347 12.5298 15.5176 13.5062 16.4939L34.0122 37L13.5063 57.5059C12.53 58.4822 12.53 60.0651 13.5063 61.0414C14.4826 62.0178 16.0655 62.0178 17.0418 61.0414L37.5477 40.5355L58.0539 61.0416C59.0302 62.018 60.6131 62.018 61.5894 61.0416C62.5657 60.0653 62.5657 58.4824 61.5894 57.5061L41.0833 37L61.5895 16.4937C62.5658 15.5174 62.5658 13.9345 61.5895 12.9582C60.6132 11.9819 59.0303 11.9819 58.054 12.9582L37.5477 33.4644L17.0417 12.9584C16.0654 11.9821 14.4825 11.9821 13.5062 12.9584Z" fill="black"/>
</g>
<defs>
<clipPath id="clip0">
<rect width="75" height="75" fill="white"/>
</clipPath>
</defs>
</svg>
