<svg width="75" height="75" viewBox="0 0 75 75" fill="none" xmlns="http://www.w3.org/2000/svg">
<g clip-path="url(#clip0)">
<path d="M64.1705 51.1289C65.4018 52.3602 66.3504 53.8447 66.9504 55.4794L71.522 67.9345C72.1091 69.5341 70.555 71.0883 68.9554 70.5012L56.5002 65.9296C54.8655 65.3296 53.381 64.381 52.1497 63.1497L13.279 24.279C12.5222 23.5222 11.9221 22.6237 11.5129 21.6349C8.60857 14.616 15.6368 7.58775 22.6557 10.4921C23.6445 10.9013 24.5431 11.5014 25.2998 12.2582L64.1705 51.1289Z" fill="black"/>
<path fill-rule="evenodd" clip-rule="evenodd" d="M58.0001 69.5C58.0001 68.6715 57.3285 68 56.5001 68H15.0001C14.1717 68 13.5001 68.6715 13.5001 69.5C13.5001 70.3284 14.1717 71 15.0001 71H56.5001C57.3285 71 58.0001 70.3284 58.0001 69.5Z" fill="black"/>
</g>
<defs>
<clipPath id="clip0">
<rect width="75" height="75" fill="white" transform="matrix(-1 0 0 1 75 0)"/>
</clipPath>
</defs>
</svg>
