<svg width="75" height="75" viewBox="0 0 75 75" fill="none" xmlns="http://www.w3.org/2000/svg">
<g clip-path="url(#clip0)">
<path d="M13.5062 13.9585C12.5298 14.9348 12.5298 16.5177 13.5062 17.494L34.0122 38.0001L13.5063 58.506C12.53 59.4823 12.53 61.0652 13.5063 62.0415C14.4826 63.0178 16.0655 63.0178 17.0418 62.0415L37.5477 41.5356L58.0539 62.0417C59.0302 63.018 60.6131 63.018 61.5894 62.0417C62.5657 61.0654 62.5657 59.4825 61.5894 58.5062L41.0833 38.0001L61.5895 17.4938C62.5658 16.5175 62.5658 14.9346 61.5895 13.9583C60.6132 12.982 59.0303 12.982 58.054 13.9583L37.5477 34.4645L17.0417 13.9585C16.0654 12.9822 14.4825 12.9822 13.5062 13.9585Z" fill="black"/>
</g>
<defs>
<clipPath id="clip0">
<rect width="75" height="75" fill="white"/>
</clipPath>
</defs>
</svg>
