<svg width="75" height="75" viewBox="0 0 75 75" fill="none" xmlns="http://www.w3.org/2000/svg">
<path d="M34.8683 64.2494C19.201 64.2494 6.5 51.5457 6.5 35.8747C6.5 20.2037 19.201 7.5 34.8683 7.5C50.5355 7.5 63.2365 20.2037 63.2365 35.8747C63.2365 39.8577 62.4163 43.6478 60.9362 47.0863C60.5452 47.9945 60.5017 49.037 60.8952 49.9715L67.2954 65.1696C67.4619 65.565 67.0858 65.9727 66.6783 65.8387L51.0125 60.6854C50.049 60.3685 49.0131 60.4961 48.1392 60.9596C44.1798 63.0597 39.6637 64.2494 34.8683 64.2494ZM25.3475 25.8787C24.1759 27.0503 24.1759 28.9497 25.3475 30.1213L30.4918 35.2656L25.3475 40.4099C24.1759 41.5815 24.1759 43.481 25.3475 44.6525C26.5191 45.8241 28.4186 45.8241 29.5902 44.6525L34.7344 39.5083L39.8787 44.6525C41.0503 45.8241 42.9498 45.8241 44.1214 44.6525C45.2929 43.481 45.2929 41.5815 44.1214 40.4099L38.9771 35.2656L44.1214 30.1213C45.2929 28.9497 45.2929 27.0503 44.1214 25.8787C42.9498 24.7071 41.0503 24.7071 39.8787 25.8787L34.7344 31.023L29.5902 25.8787C28.4186 24.7071 26.5191 24.7071 25.3475 25.8787Z" fill="black" stroke="black" stroke-linecap="round"/>
</svg>
