<svg width="75" height="75" viewBox="0 0 75 75" fill="none" xmlns="http://www.w3.org/2000/svg">
<path d="M33.5993 12.7375C35.3441 9.75416 39.6559 9.75416 41.4007 12.7375L67.8743 58.0033C69.6361 61.0157 67.4635 64.8034 63.9736 64.8034H11.0264C7.53654 64.8034 5.36387 61.0157 7.12571 58.0033L33.5993 12.7375ZM37.4999 18.135C36.0718 18.135 34.9141 19.2927 34.9141 20.7208V45.7497C34.9141 47.1777 36.0718 48.3354 37.4999 48.3354C38.9279 48.3354 40.0856 47.1778 40.0856 45.7497V20.7208C40.0856 19.2927 38.9279 18.135 37.4999 18.135ZM37.4997 59.807C39.5037 59.807 41.1283 58.1824 41.1283 56.1784C41.1283 54.1743 39.5037 52.5497 37.4997 52.5497C35.4957 52.5497 33.8711 54.1743 33.8711 56.1784C33.8711 58.1824 35.4957 59.807 37.4997 59.807Z" fill="black" stroke="black"/>
</svg>
