<svg width="75" height="75" viewBox="0 0 75 75" fill="none" xmlns="http://www.w3.org/2000/svg">
<path d="M6.5 63.2743V14C6.5 11.5147 8.51472 9.5 11 9.5H64C66.4853 9.5 68.5 11.5147 68.5 14V45.5461C68.5 48.0313 66.4853 50.0461 64 50.0461H24.7361C23.3898 50.0461 22.0903 50.5399 21.0837 51.4339L7.33204 63.6481C7.00954 63.9346 6.5 63.7056 6.5 63.2743ZM52 35.5C55.0376 35.5 57.5 33.0376 57.5 30C57.5 26.9624 55.0376 24.5 52 24.5C48.9624 24.5 46.5 26.9624 46.5 30C46.5 33.0376 48.9624 35.5 52 35.5ZM37 35.5C40.0376 35.5 42.5 33.0376 42.5 30C42.5 26.9624 40.0376 24.5 37 24.5C33.9624 24.5 31.5 26.9624 31.5 30C31.5 33.0376 33.9624 35.5 37 35.5ZM22 35.5C25.0376 35.5 27.5 33.0376 27.5 30C27.5 26.9624 25.0376 24.5 22 24.5C18.9624 24.5 16.5 26.9624 16.5 30C16.5 33.0376 18.9624 35.5 22 35.5Z" fill="black" stroke="black"/>
</svg>
