<svg width="75" height="75" viewBox="0 0 75 75" fill="none" xmlns="http://www.w3.org/2000/svg">
<path d="M21.453 44.1861C20.2218 45.4174 19.2732 46.9019 18.6732 48.5365L15.9965 55.8291C15.4093 57.4287 16.9635 58.9829 18.5631 58.3958L25.8557 55.7191C27.4904 55.1191 28.9749 54.1705 30.2062 52.9392L58.0024 25.143C58.5535 24.5919 58.9905 23.9377 59.2884 23.2176C61.4033 18.1067 56.2856 12.989 51.1747 15.1038C50.4546 15.4018 49.8003 15.8388 49.2493 16.3898L21.453 44.1861Z" fill="black"/>
<path d="M10 11.9079C5.85786 11.9079 2.5 15.2658 2.5 19.4079V65C2.5 69.1421 5.85786 72.5 10 72.5H52.171C56.3131 72.5 59.671 69.1421 59.671 65V34.5066C59.671 33.1259 58.5517 32.0066 57.171 32.0066C55.7903 32.0066 54.671 33.1259 54.671 34.5066V65C54.671 66.3807 53.5517 67.5 52.171 67.5H10C8.61929 67.5 7.5 66.3807 7.5 65V19.4079C7.5 18.0272 8.61929 16.9079 10 16.9079H42.0802C43.4609 16.9079 44.5802 15.7886 44.5802 14.4079C44.5802 13.0272 43.4609 11.9079 42.0802 11.9079H10Z" fill="black"/>
</svg>
