<svg width="75" height="75" viewBox="0 0 75 75" fill="none" xmlns="http://www.w3.org/2000/svg">
<path d="M30.3089 8.93605C28.8266 8.35982 27.2791 8 25.6875 8C14.8145 8 6 16.856 6 27.7802C6 34.0865 9.28125 39.6483 13.5119 43.3249L36.783 67.2624C37.1757 67.6664 37.8243 67.6664 38.217 67.2624L61.4881 43.3249C65.7188 39.6483 69 34.0865 69 27.7802C69 16.856 60.1855 8 49.3125 8C45.584 8 42.0974 9.97463 39.1254 12.0802L43.4236 19.5044C43.7805 20.1208 43.7826 20.8804 43.4293 21.4988L38.3018 30.4719C38.105 30.8162 38.0151 31.2112 38.0433 31.6067L38.5 38L33.8519 32.5067C33.3351 31.896 33.232 31.036 33.5898 30.3204L37.9639 21.5722C38.2939 20.9122 38.2337 20.124 37.8071 19.5218L30.3089 8.93605Z" fill="black"/>
</svg>
