<svg width="75" height="75" viewBox="0 0 75 75" fill="none" xmlns="http://www.w3.org/2000/svg">
<path d="M62.5107 52.0298C54.2264 66.3786 35.8787 71.2948 21.5299 63.0106C7.18114 54.7263 2.26488 36.3786 10.5492 22.0298C18.8334 7.68102 37.1811 2.76477 51.5299 11.049C65.8787 19.3333 70.795 37.681 62.5107 52.0298ZM48.4811 45.9999C49.2457 45.5539 49.7175 44.7368 49.7214 43.8516L49.8301 19.4405C49.8387 17.5061 47.7414 16.2952 46.0705 17.2699L24.9842 29.5695C24.2196 30.0156 23.7478 30.8327 23.7439 31.7179L23.6352 56.129C23.6266 58.0634 25.7239 59.2742 27.3948 58.2996L48.4811 45.9999Z" fill="black" stroke="black" stroke-width="3"/>
</svg>
