<svg width="75" height="75" viewBox="0 0 75 75" fill="none" xmlns="http://www.w3.org/2000/svg">
<path d="M41.0721 51.6838L52.1402 40.6158C53.0189 39.7371 54.4435 39.7371 55.3222 40.6158C56.2009 41.4944 56.2009 42.9191 55.3222 43.7977L41.0021 58.1179C39.7342 59.3857 37.6786 59.3857 36.4108 58.1179L22.0907 43.7977C21.212 42.9191 21.212 41.4944 22.0907 40.6158C22.9693 39.7371 24.394 39.7371 25.2726 40.6158L36.5721 51.9153V8.25C36.5721 7.00736 37.5795 6 38.8221 6C40.0648 6 41.0721 7.00736 41.0721 8.25V51.6838Z" fill="black"/>
<path fill-rule="evenodd" clip-rule="evenodd" d="M10 67.5C10 66.6716 10.6716 66 11.5 66H64C64.8284 66 65.5 66.6716 65.5 67.5C65.5 68.3284 64.8284 69 64 69H11.5C10.6716 69 10 68.3284 10 67.5Z" fill="black"/>
</svg>
