<svg width="75" height="75" viewBox="0 0 75 75" fill="none" xmlns="http://www.w3.org/2000/svg">
<path d="M68.5 14V63.2743C68.5 63.7056 67.9905 63.9346 67.668 63.6481L53.9163 51.4339C52.9097 50.5399 51.6102 50.0461 50.2639 50.0461H11C8.51472 50.0461 6.5 48.0313 6.5 45.5461V14C6.5 11.5147 8.51472 9.5 11 9.5H64C66.4853 9.5 68.5 11.5147 68.5 14ZM45.9182 25.3869C47.0897 24.2154 47.0897 22.3159 45.9182 21.1443C44.7466 19.9727 42.8471 19.9727 41.6755 21.1443L36.5312 26.2886L31.3869 21.1443C30.2154 19.9727 28.3159 19.9727 27.1443 21.1443C25.9727 22.3159 25.9727 24.2154 27.1443 25.3869L32.2886 30.5312L27.1443 35.6755C25.9727 36.8471 25.9727 38.7466 27.1443 39.9182C28.3159 41.0897 30.2154 41.0897 31.3869 39.9182L36.5312 34.7739L41.6755 39.9182C42.8471 41.0897 44.7466 41.0897 45.9182 39.9182C47.0897 38.7466 47.0897 36.8471 45.9182 35.6755L40.7739 30.5312L45.9182 25.3869Z" fill="black" stroke="black" stroke-linecap="round"/>
</svg>
