<svg width="75" height="75" viewBox="0 0 75 75" fill="none" xmlns="http://www.w3.org/2000/svg">
<path d="M68.5 37.5C68.5 54.6208 54.6208 68.5 37.5 68.5C20.3792 68.5 6.5 54.6208 6.5 37.5C6.5 20.3792 20.3792 6.5 37.5 6.5C54.6208 6.5 68.5 20.3792 68.5 37.5ZM37.1286 17.5001C35.1246 17.5001 33.5 19.1246 33.5 21.1287C33.5 23.1327 35.1246 24.7573 37.1286 24.7573C39.1326 24.7573 40.7572 23.1327 40.7572 21.1287C40.7572 19.1246 39.1326 17.5001 37.1286 17.5001ZM37.1285 59.172C38.5565 59.172 39.7142 58.0143 39.7142 56.5863V31.5574C39.7142 30.1293 38.5565 28.9716 37.1285 28.9716C35.7004 28.9716 34.5427 30.1293 34.5427 31.5573V56.5863C34.5427 58.0143 35.7004 59.172 37.1285 59.172Z" fill="black" stroke="black"/>
</svg>
