<svg width="75" height="75" viewBox="0 0 75 75" fill="none" xmlns="http://www.w3.org/2000/svg">
<path d="M68.5 37.5C68.5 54.6208 54.6208 68.5 37.5 68.5C20.3792 68.5 6.5 54.6208 6.5 37.5C6.5 20.3792 20.3792 6.5 37.5 6.5C54.6208 6.5 68.5 20.3792 68.5 37.5ZM37.5757 14.9701C36.0787 14.9701 34.8651 16.1836 34.8651 17.6806V44.2069C34.8651 45.7039 36.0787 46.9174 37.5757 46.9174C39.0726 46.9174 40.2862 45.7039 40.2862 44.2069V17.6806C40.2862 16.1836 39.0726 14.9701 37.5757 14.9701ZM37.5756 59.0753C39.683 59.0753 41.3913 57.3669 41.3913 55.2595C41.3913 53.1521 39.683 51.4437 37.5756 51.4437C35.4682 51.4437 33.7598 53.1521 33.7598 55.2595C33.7598 57.3669 35.4682 59.0753 37.5756 59.0753Z" fill="black" stroke="black"/>
</svg>
