<svg width="75" height="75" viewBox="0 0 75 75" fill="none" xmlns="http://www.w3.org/2000/svg">
<path d="M3 14.5C3 15.8807 4.11929 17 5.5 17H68.5C69.8807 17 71 15.8807 71 14.5C71 13.1193 69.8807 12 68.5 12H5.5C4.11929 12 3 13.1193 3 14.5Z" fill="black"/>
<path d="M3 37.2872C3 38.6679 4.11929 39.7872 5.5 39.7872H68.5C69.8807 39.7872 71 38.6679 71 37.2872C71 35.9065 69.8807 34.7872 68.5 34.7872H5.5C4.11929 34.7872 3 35.9065 3 37.2872Z" fill="black"/>
<path d="M3 61.4149C3 62.7956 4.11929 63.9149 5.5 63.9149H68.5C69.8807 63.9149 71 62.7956 71 61.4149C71 60.0342 69.8807 58.9149 68.5 58.9149H5.5C4.11929 58.9149 3 60.0342 3 61.4149Z" fill="black"/>
</svg>
