<svg width="75" height="75" viewBox="0 0 75 75" fill="none" xmlns="http://www.w3.org/2000/svg">
<path fill-rule="evenodd" clip-rule="evenodd" d="M39.75 6C41.4069 6 42.75 7.34315 42.75 9V13.3608C44.7601 15.3708 47.4864 16.5 50.329 16.5H51.0749L53.8118 13.7632C54.9834 12.5917 56.8828 12.5917 58.0544 13.7632L61.2364 16.9453C62.408 18.1168 62.408 20.0164 61.2364 21.1879L58.0625 24.3618C58.0625 27.1223 59.1591 29.7698 61.1111 31.7217L61.6394 32.25H66C67.6569 32.25 69 33.5931 69 35.25V39.75C69 41.4069 67.6569 42.75 66 42.75H61.2019C59.1918 44.7601 58.0625 47.4863 58.0625 50.3291V50.6382L61.2364 53.8121C62.408 54.9837 62.408 56.8832 61.2364 58.0548L58.0544 61.2368C56.8828 62.4083 54.9834 62.4083 53.8118 61.2368L50.6374 58.0625H50.329C47.4864 58.0625 44.7601 59.1917 42.75 61.2017V66C42.75 67.6569 41.4069 69 39.75 69H35.25C33.5931 69 32.25 67.6569 32.25 66V61.6391L31.722 61.1111C29.7701 59.1591 27.1227 58.0625 24.3622 58.0625L21.1878 61.2368C20.0162 62.4083 18.1167 62.4083 16.9452 61.2368L13.7631 58.0548C12.5916 56.8832 12.5916 54.9837 13.7631 53.8121L16.5 51.0753V50.3283C16.5 47.4859 15.3709 44.7599 13.361 42.75H9C7.34315 42.75 6 41.4069 6 39.75V35.25C6 33.5931 7.34315 32.25 9 32.25H12.9235L13.1422 32.0314C15.2921 29.8814 16.5 26.9653 16.5 23.9248L13.7631 21.1879C12.5915 20.0164 12.5915 18.1168 13.7631 16.9453L16.9452 13.7632C18.1167 12.5917 20.0162 12.5917 21.1878 13.7632L23.9247 16.5C26.9653 16.5 29.8814 15.2921 32.0314 13.142L32.25 12.9234V9C32.25 7.34315 33.5931 6 35.25 6H39.75ZM37.5 50.625C44.7487 50.625 50.625 44.7487 50.625 37.5C50.625 30.2513 44.7487 24.375 37.5 24.375C30.2513 24.375 24.375 30.2513 24.375 37.5C24.375 44.7487 30.2513 50.625 37.5 50.625Z" fill="black"/>
</svg>
