<svg width="75" height="75" viewBox="0 0 75 75" fill="none" xmlns="http://www.w3.org/2000/svg">
<path d="M53.547 44.1861C54.7782 45.4174 55.7268 46.9019 56.3268 48.5365L59.0035 55.8291C59.5907 57.4287 58.0365 58.9829 56.4369 58.3958L49.1443 55.7191C47.5096 55.1191 46.0251 54.1705 44.7938 52.9392L16.9976 25.143C16.4465 24.5919 16.0095 23.9377 15.7116 23.2176C13.5967 18.1067 18.7144 12.989 23.8253 15.1038C24.5454 15.4018 25.1997 15.8388 25.7507 16.3898L53.547 44.1861Z" fill="black"/>
<path d="M65 11.9079C69.1421 11.9079 72.5 15.2658 72.5 19.4079V65C72.5 69.1421 69.1421 72.5 65 72.5H22.829C18.6868 72.5 15.329 69.1421 15.329 65V34.5066C15.329 33.1259 16.4483 32.0066 17.829 32.0066C19.2097 32.0066 20.329 33.1259 20.329 34.5066V65C20.329 66.3807 21.4483 67.5 22.829 67.5H65C66.3807 67.5 67.5 66.3807 67.5 65V19.4079C67.5 18.0272 66.3807 16.9079 65 16.9079H32.9198C31.5391 16.9079 30.4198 15.7886 30.4198 14.4079C30.4198 13.0272 31.5391 11.9079 32.9198 11.9079H65Z" fill="black"/>
</svg>
