<svg width="75" height="75" viewBox="0 0 75 75" fill="none" xmlns="http://www.w3.org/2000/svg">
<path d="M68.1087 35.8747C68.1087 51.5457 55.4077 64.2494 39.7405 64.2494C34.945 64.2494 30.4289 63.0597 26.4695 60.9596C25.5957 60.4961 24.5597 60.3685 23.5962 60.6854L7.93039 65.8387C7.52287 65.9727 7.14685 65.565 7.31334 65.1696L13.7135 49.9715C14.107 49.037 14.0635 47.9945 13.6726 47.0863C12.1924 43.6478 11.3722 39.8577 11.3722 35.8747C11.3722 20.2037 24.0732 7.5 39.7405 7.5C55.4077 7.5 68.1087 20.2037 68.1087 35.8747ZM32 35.5C32 31.3579 35.3579 28 39.5 28C40.4743 28 41.4044 28.1855 42.2575 28.523L32.523 38.2574C32.1856 37.4044 32 36.4743 32 35.5ZM39.5 43C38.5383 43 37.6197 42.8192 36.7757 42.49L46.4901 32.7757C46.8193 33.6197 47 34.5383 47 35.5C47 39.6421 43.6422 43 39.5 43ZM39.5 22C32.0442 22 26 28.0442 26 35.5C26 42.9558 32.0442 49 39.5 49C46.9559 49 53 42.9558 53 35.5C53 28.0442 46.9559 22 39.5 22Z" fill="black" stroke="black"/>
</svg>
