<svg width="75" height="75" viewBox="0 0 75 75" fill="none" xmlns="http://www.w3.org/2000/svg">
<path d="M6.5 64.2743V15C6.5 12.5147 8.51472 10.5 11 10.5H64C66.4853 10.5 68.5 12.5147 68.5 15V46.5461C68.5 49.0313 66.4853 51.0461 64 51.0461H24.7361C23.3898 51.0461 22.0903 51.5399 21.0837 52.4339L7.33204 64.6481C7.00954 64.9346 6.5 64.7056 6.5 64.2743ZM29.0818 22.1443C27.9103 23.3159 27.9103 25.2154 29.0818 26.3869L34.2261 31.5312L29.0818 36.6755C27.9103 37.8471 27.9103 39.7466 29.0818 40.9182C30.2534 42.0897 32.1529 42.0897 33.3245 40.9182L38.4688 35.7739L43.6131 40.9182C44.7846 42.0897 46.6841 42.0897 47.8557 40.9182C49.0273 39.7466 49.0273 37.8471 47.8557 36.6755L42.7114 31.5312L47.8557 26.3869C49.0273 25.2154 49.0273 23.3159 47.8557 22.1443C46.6841 20.9727 44.7846 20.9727 43.6131 22.1443L38.4688 27.2886L33.3245 22.1443C32.1529 20.9727 30.2534 20.9727 29.0818 22.1443Z" fill="black" stroke="black" stroke-linecap="round"/>
</svg>
