<svg width="75" height="75" viewBox="0 0 75 75" fill="none" xmlns="http://www.w3.org/2000/svg">
<path d="M30.5993 12.7375C32.3441 9.75416 36.6559 9.75416 38.4007 12.7375L64.8743 58.0033C66.6361 61.0157 64.4635 64.8034 60.9736 64.8034H8.02639C4.53654 64.8034 2.36387 61.0157 4.12571 58.0033L30.5993 12.7375ZM34.1286 19.5001C32.1246 19.5001 30.5 21.1246 30.5 23.1287C30.5 25.1327 32.1246 26.7573 34.1286 26.7573C36.1326 26.7573 37.7572 25.1327 37.7572 23.1287C37.7572 21.1246 36.1326 19.5001 34.1286 19.5001ZM34.1285 61.172C35.5565 61.172 36.7142 60.0143 36.7142 58.5863V33.5574C36.7142 32.1293 35.5565 30.9716 34.1285 30.9716C32.7004 30.9716 31.5427 32.1293 31.5427 33.5573V58.5863C31.5427 60.0143 32.7004 61.172 34.1285 61.172Z" fill="black" stroke="black"/>
</svg>
