<svg width="75" height="75" viewBox="0 0 75 75" fill="none" xmlns="http://www.w3.org/2000/svg">
<path fill-rule="evenodd" clip-rule="evenodd" d="M70.3291 44.9143C69.5037 45.6483 68.2395 45.5743 67.5055 44.7489L37.5 11.0095L7.49446 44.7489C6.76043 45.5743 5.49626 45.6483 4.67088 44.9143C3.8455 44.1802 3.77145 42.9161 4.50549 42.0907L34.511 8.35135C36.1021 6.56228 38.8979 6.56228 40.489 8.35135L70.4945 42.0907C71.2285 42.9161 71.1545 44.1802 70.3291 44.9143Z" fill="black"/>
<path fill-rule="evenodd" clip-rule="evenodd" d="M70.3291 68.0841C69.5037 68.8181 68.2395 68.7441 67.5055 67.9187L37.5 34.1793L7.49446 67.9187C6.76043 68.7441 5.49626 68.8181 4.67088 68.0841C3.8455 67.35 3.77145 66.0859 4.50549 65.2605L34.511 31.5211C36.1021 29.7321 38.8979 29.7321 40.489 31.5211L70.4945 65.2605C71.2285 66.0859 71.1545 67.35 70.3291 68.0841Z" fill="black"/>
</svg>
