<svg width="75" height="75" viewBox="0 0 75 75" fill="none" xmlns="http://www.w3.org/2000/svg">
<path d="M30.5993 12.7375C32.3441 9.75416 36.6559 9.75416 38.4007 12.7375L64.8743 58.0033C66.6361 61.0157 64.4635 64.8034 60.9736 64.8034H8.02639C4.53654 64.8034 2.36387 61.0157 4.12571 58.0033L30.5993 12.7375ZM42.4422 26.3269C40.7469 21.8952 36.5221 20.4241 32.9042 21.2001C29.3065 21.9716 26 25.0191 26 29.6981C26 30.8027 26.8954 31.6981 28 31.6981C29.1046 31.6981 30 30.8027 30 29.6981C30 27.1861 31.6996 25.5494 33.743 25.1111C35.7648 24.6775 37.8304 25.4666 38.7062 27.756C39.153 28.9241 39.088 30.225 38.5264 31.3435L34.3461 39.6697C33.3263 41.7009 32.7952 43.9412 32.7952 46.2129V50C32.7952 51.1045 33.6906 52 34.7952 52C35.8998 52 36.7952 51.1045 36.7952 50V46.2129C36.7952 44.5649 37.1805 42.9392 37.9209 41.4645L42.1012 33.1382C43.1667 31.0158 43.2906 28.5449 42.4422 26.3269ZM35.1286 59.7572C37.1326 59.7572 38.7572 58.1326 38.7572 56.1286C38.7572 54.1246 37.1326 52.5 35.1286 52.5C33.1246 52.5 31.5 54.1246 31.5 56.1286C31.5 58.1326 33.1246 59.7572 35.1286 59.7572Z" fill="black" stroke="black" stroke-linecap="round"/>
</svg>
