<svg width="75" height="75" viewBox="0 0 75 75" fill="none" xmlns="http://www.w3.org/2000/svg">
<path d="M27.2733 54.9879H65.4379C66.0701 54.9879 66.2201 54.1051 65.6234 53.8963L65.2087 53.7511C61.0876 52.3087 58.3281 48.4193 58.3281 44.0531V30.6531L58.3224 30.5148C58.3262 30.3417 58.3281 30.1681 58.3281 29.9941C58.3281 25.9093 57.2616 22.086 55.4049 18.8146L27.2733 54.9879Z" fill="black"/>
<path d="M51.2214 13.5407C47.5567 10.1685 42.7557 8.12454 37.5 8.12454C25.9969 8.12454 16.6719 17.9159 16.6719 29.9941C16.6719 30.1681 16.6738 30.3417 16.6776 30.5148L16.6719 30.5961V44.0531C16.6719 48.4193 13.9124 52.3087 9.79129 53.7511L9.37661 53.8963C8.77989 54.1051 8.92989 54.9879 9.56208 54.9879H18.9884L51.2214 13.5407Z" fill="black"/>
<rect x="11.0828" y="68.8724" width="80.914" height="2.37441" rx="1.1872" transform="rotate(-52.1282 11.0828 68.8724)" fill="black"/>
<path fill-rule="evenodd" clip-rule="evenodd" d="M27.1726 56.7255C27.9383 56.4092 28.8154 56.7736 29.1317 57.5392C32.2654 65.1262 43.0116 65.1262 46.1452 57.5393C46.4614 56.7736 47.3385 56.4092 48.1042 56.7255C48.8699 57.0417 49.2342 57.9188 48.918 58.6845C44.7629 68.7445 30.514 68.7444 26.3589 58.6845C26.0426 57.9188 26.4069 57.0417 27.1726 56.7255Z" fill="black"/>
</svg>
