<svg width="75" height="75" viewBox="0 0 75 75" fill="none" xmlns="http://www.w3.org/2000/svg">
<path d="M68.5 14V64.1747C68.5 64.6137 67.9747 64.8396 67.6561 64.5377L53.9542 51.5538C52.9325 50.5857 51.5786 50.0461 50.1711 50.0461H11C8.51472 50.0461 6.5 48.0313 6.5 45.5461V14C6.5 11.5147 8.51472 9.5 11 9.5H64C66.4853 9.5 68.5 11.5147 68.5 14ZM30 30.5C30 26.3579 33.3579 23 37.5 23C38.4743 23 39.4044 23.1855 40.2574 23.523L30.523 33.2574C30.1855 32.4044 30 31.4743 30 30.5ZM37.5 38C36.5383 38 35.6197 37.8192 34.7757 37.49L44.49 27.7757C44.8192 28.6197 45 29.5383 45 30.5C45 34.6421 41.6421 38 37.5 38ZM37.5 17C30.0442 17 24 23.0442 24 30.5C24 37.9558 30.0442 44 37.5 44C44.9558 44 51 37.9558 51 30.5C51 23.0442 44.9558 17 37.5 17Z" fill="black" stroke="black"/>
</svg>
