<svg width="75" height="75" viewBox="0 0 75 75" fill="none" xmlns="http://www.w3.org/2000/svg">
<path d="M68.1087 35.8747C68.1087 51.5457 55.4077 64.2494 39.7405 64.2494C34.945 64.2494 30.4289 63.0597 26.4695 60.9596C25.5957 60.4961 24.5597 60.3685 23.5962 60.6854L7.93039 65.8387C7.52288 65.9727 7.14685 65.565 7.31335 65.1696L13.7135 49.9715C14.107 49.037 14.0635 47.9945 13.6726 47.0863C12.1924 43.6478 11.3722 39.8577 11.3722 35.8747C11.3722 20.2037 24.0732 7.5 39.7405 7.5C55.4077 7.5 68.1087 20.2037 68.1087 35.8747ZM25 42.5C28.0376 42.5 30.5 40.0376 30.5 37C30.5 33.9624 28.0376 31.5 25 31.5C21.9625 31.5 19.5 33.9624 19.5 37C19.5 40.0376 21.9625 42.5 25 42.5ZM40 42.5C43.0376 42.5 45.5 40.0376 45.5 37C45.5 33.9624 43.0376 31.5 40 31.5C36.9625 31.5 34.5 33.9624 34.5 37C34.5 40.0376 36.9625 42.5 40 42.5ZM55 42.5C58.0376 42.5 60.5 40.0376 60.5 37C60.5 33.9624 58.0376 31.5 55 31.5C51.9625 31.5 49.5 33.9624 49.5 37C49.5 40.0376 51.9625 42.5 55 42.5Z" fill="black" stroke="black"/>
</svg>
