<svg width="75" height="75" viewBox="0 0 75 75" fill="none" xmlns="http://www.w3.org/2000/svg">
<path d="M49.0731 27.3576C49.0731 33.6303 43.9881 38.7153 37.7155 38.7153C31.4428 38.7153 26.3578 33.6303 26.3578 27.3576C26.3578 21.085 31.4428 16 37.7155 16C43.9881 16 49.0731 21.085 49.0731 27.3576Z" fill="black"/>
<path fill-rule="evenodd" clip-rule="evenodd" d="M59.7625 59.7853C65.4695 54.084 69 46.2043 69 37.5C69 20.103 54.897 6 37.5 6C20.103 6 6 20.103 6 37.5C6 46.0829 9.43266 53.864 15 59.5454C20.7173 65.3799 28.6859 69 37.5 69C46.1927 69 54.063 65.4789 59.7625 59.7853ZM59.4883 55.6331C63.5562 50.706 66 44.3884 66 37.5C66 21.7599 53.2401 9 37.5 9C21.7599 9 9 21.7599 9 37.5C9 44.2813 11.3684 50.5095 15.3232 55.4024C16.8418 48.5523 23.5324 43.392 31.556 43.392H43.2065C51.3199 43.392 58.0703 48.6685 59.4883 55.6331Z" fill="black"/>
</svg>
