<svg width="75" height="75" viewBox="0 0 75 75" fill="none" xmlns="http://www.w3.org/2000/svg">
<path d="M26.308 22.3737C27.3428 21.4596 27.4407 19.8797 26.5266 18.8449C25.6125 17.8101 24.0326 17.7123 22.9978 18.6263L5.52084 34.0644C3.49305 35.8556 3.49305 39.0184 5.52084 40.8096L22.9978 56.2476C24.0326 57.1617 25.6125 57.0638 26.5266 56.029C27.4407 54.9942 27.3428 53.4143 26.308 52.5003L9.25525 37.437L26.308 22.3737Z" fill="black"/>
<path d="M52.6502 53.3633C51.6154 54.2774 51.5176 55.8573 52.4316 56.8921C53.3457 57.9269 54.9256 58.0247 55.9604 57.1107L73.4374 41.6726C75.4652 39.8814 75.4652 36.7186 73.4374 34.9274L55.9604 19.4894C54.9256 18.5753 53.3457 18.6732 52.4316 19.708C51.5176 20.7428 51.6154 22.3227 52.6502 23.2367L69.703 38.3L52.6502 53.3633Z" fill="black"/>
</svg>
