<svg width="75" height="75" viewBox="0 0 75 75" fill="none" xmlns="http://www.w3.org/2000/svg">
<path d="M36.3408 14.7296L25.2728 25.7976C24.3942 26.6762 22.9696 26.6762 22.0909 25.7976C21.2122 24.9189 21.2122 23.4943 22.0909 22.6156L36.4109 8.29556C37.6788 7.02773 39.7343 7.02772 41.0022 8.29556L55.3222 22.6156C56.2009 23.4943 56.2009 24.9189 55.3222 25.7976C54.4435 26.6762 53.0189 26.6762 52.1402 25.7976L40.8408 14.4981L40.8408 58.1631C40.8408 59.4057 39.8335 60.4131 38.5908 60.4131C37.3482 60.4131 36.3408 59.4057 36.3408 58.1631L36.3408 14.7296Z" fill="black"/>
<path fill-rule="evenodd" clip-rule="evenodd" d="M10 67.5C10 66.6716 10.6716 66 11.5 66H63.9996C64.828 66 65.4996 66.6716 65.4996 67.5C65.4996 68.3284 64.828 69 63.9996 69H11.5C10.6716 69 10 68.3284 10 67.5Z" fill="black"/>
</svg>
