<svg width="75" height="75" viewBox="0 0 75 75" fill="none" xmlns="http://www.w3.org/2000/svg">
<circle cx="24.6957" cy="22.4632" r="11.3049" fill="black" stroke="black" stroke-width="3"/>
<path d="M1.5 56.6549C1.5 48.3121 8.88757 41.3412 18.2676 41.3412H31.1226C40.5026 41.3412 47.8902 48.3121 47.8902 56.6549V60.1095C47.8902 64.2517 44.5323 67.6095 40.3902 67.6095H8.99999C4.85786 67.6095 1.5 64.2517 1.5 60.1095V56.6549Z" fill="black" stroke="black" stroke-width="3"/>
<circle cx="53.0493" cy="16.9756" r="9.4756" fill="black" stroke="black" stroke-width="3"/>
<path d="M41.8583 36.9714C41.1285 36.7054 40.6505 36.1194 40.5121 35.6246C40.4469 35.3914 40.4694 35.2316 40.5064 35.1372C40.5369 35.0595 40.6135 34.9274 40.8704 34.7949C42.9475 33.7238 45.3476 33.1095 47.912 33.1095H59.1006C67.165 33.1095 73.5001 39.1322 73.5001 46.3215V51.6833C73.5001 53.9123 71.6932 55.7192 69.4642 55.7192H55.6955C55.5674 55.7192 55.4636 55.6154 55.4636 55.4873C55.4636 47.0078 49.7621 39.8529 41.8583 36.9714Z" fill="black" stroke="black" stroke-width="3"/>
</svg>
