<svg width="75" height="75" viewBox="0 0 75 75" fill="none" xmlns="http://www.w3.org/2000/svg">
<path d="M20 3.5C13.0964 3.5 7.5 9.09644 7.5 16V59C7.5 65.9036 13.0964 71.5 20 71.5H43.2182C44.5989 71.5 45.7182 70.3807 45.7182 69C45.7182 67.6193 44.5989 66.5 43.2182 66.5H20C15.8579 66.5 12.5 63.1421 12.5 59V16C12.5 11.8579 15.8579 8.5 20 8.5H43.2182C44.5989 8.5 45.7182 7.38071 45.7182 6C45.7182 4.61929 44.5989 3.5 43.2182 3.5H20Z" fill="black"/>
<path d="M52.1709 24.8351C51.1094 23.7736 49.3884 23.7736 48.3269 24.8351C47.2653 25.8966 47.2653 27.6177 48.3269 28.6792L55.0717 35.4241H24.3183C22.8171 35.4241 21.6001 36.641 21.6001 38.1423C21.6001 39.6435 22.8171 40.8604 24.3183 40.8604H55.2485L48.3269 47.782C47.2653 48.8436 47.2653 50.5646 48.3269 51.6261C49.3884 52.6876 51.1094 52.6876 52.1709 51.6261L63.1063 40.6908C64.465 39.3321 64.465 37.1292 63.1063 35.7705L52.1709 24.8351Z" fill="black"/>
</svg>
