<svg width="75" height="75" viewBox="0 0 75 75" fill="none" xmlns="http://www.w3.org/2000/svg">
<g clip-path="url(#clip0)">
<path d="M10.8295 51.1289C9.59818 52.3602 8.64961 53.8447 8.04962 55.4794L3.47799 67.9345C2.89086 69.5341 4.44505 71.0883 6.04464 70.5012L18.4998 65.9296C20.1345 65.3296 21.619 64.381 22.8503 63.1497L61.721 24.279C62.4778 23.5222 63.0779 22.6237 63.4871 21.6349C66.3914 14.616 59.3632 7.58775 52.3443 10.4921C51.3555 10.9013 50.4569 11.5014 49.7002 12.2582L10.8295 51.1289Z" fill="black"/>
<path fill-rule="evenodd" clip-rule="evenodd" d="M17 69.5C17 68.6715 17.6716 68 18.5 68H60C60.8284 68 61.5 68.6715 61.5 69.5C61.5 70.3284 60.8284 71 60 71H18.5C17.6716 71 17 70.3284 17 69.5Z" fill="black"/>
</g>
<defs>
<clipPath id="clip0">
<rect width="75" height="75" fill="white"/>
</clipPath>
</defs>
</svg>
