<svg width="75" height="75" viewBox="0 0 75 75" fill="none" xmlns="http://www.w3.org/2000/svg">
<path fill-rule="evenodd" clip-rule="evenodd" d="M37 4C18.2223 4 3 19.2223 3 38C3 56.7777 18.2223 72 37 72C55.7777 72 71 56.7777 71 38C71 19.2223 55.7777 4 37 4ZM8 38C8 21.9837 20.9837 9 37 9C44.1258 9 50.6512 11.57 55.7001 15.8337L14.8337 56.7001C10.57 51.6512 8 45.1258 8 38ZM59.2297 19.3752C63.4554 24.4136 66 30.9096 66 38C66 54.0163 53.0163 67 37 67C29.9096 67 23.4136 64.4554 18.3753 60.2297L59.2297 19.3752Z" fill="black"/>
</svg>
