<svg width="75" height="75" viewBox="0 0 75 75" fill="none" xmlns="http://www.w3.org/2000/svg">
<path d="M35.2596 64.2494C19.5923 64.2494 6.89136 51.5457 6.89136 35.8747C6.89136 20.2037 19.5923 7.5 35.2596 7.5C50.9269 7.5 63.6279 20.2037 63.6279 35.8747C63.6279 39.8577 62.8077 43.6478 61.3275 47.0863C60.9365 47.9945 60.893 49.037 61.2866 49.9715L67.6867 65.1696C67.8532 65.565 67.4772 65.9727 67.0697 65.8387L51.4039 60.6854C50.4404 60.3685 49.4044 60.4961 48.5305 60.9596C44.5712 63.0597 40.0551 64.2494 35.2596 64.2494ZM28.0001 35.5C28.0001 31.3579 31.3579 28 35.5001 28C36.4744 28 37.4044 28.1855 38.2575 28.523L28.523 38.2574C28.1856 37.4044 28.0001 36.4743 28.0001 35.5ZM35.5001 43C34.5383 43 33.6197 42.8192 32.7757 42.49L42.4901 32.7757C42.8193 33.6197 43.0001 34.5383 43.0001 35.5C43.0001 39.6421 39.6422 43 35.5001 43ZM35.5001 22C28.0442 22 22.0001 28.0442 22.0001 35.5C22.0001 42.9558 28.0442 49 35.5001 49C42.9559 49 49.0001 42.9558 49.0001 35.5C49.0001 28.0442 42.9559 22 35.5001 22Z" fill="black" stroke="black"/>
</svg>
