<svg width="75" height="75" viewBox="0 0 75 75" fill="none" xmlns="http://www.w3.org/2000/svg">
<path d="M34.8683 64.2494C19.201 64.2494 6.5 51.5457 6.5 35.8747C6.5 20.2037 19.201 7.5 34.8683 7.5C50.5355 7.5 63.2365 20.2037 63.2365 35.8747C63.2365 39.8577 62.4163 43.6478 60.9362 47.0863C60.5452 47.9945 60.5017 49.037 60.8952 49.9715L67.2954 65.1696C67.4619 65.565 67.0858 65.9727 66.6783 65.8387L51.0125 60.6854C50.049 60.3685 49.013 60.4961 48.1392 60.9596C44.1798 63.0597 39.6637 64.2494 34.8683 64.2494ZM20.0001 42.5C23.0376 42.5 25.5001 40.0376 25.5001 37C25.5001 33.9624 23.0376 31.5 20.0001 31.5C16.9625 31.5 14.5001 33.9624 14.5001 37C14.5001 40.0376 16.9625 42.5 20.0001 42.5ZM34.6087 42.5C37.6463 42.5 40.1087 40.0376 40.1087 37C40.1087 33.9624 37.6463 31.5 34.6087 31.5C31.5711 31.5 29.1087 33.9624 29.1087 37C29.1087 40.0376 31.5711 42.5 34.6087 42.5ZM50.0001 42.5C53.0376 42.5 55.5001 40.0376 55.5001 37C55.5001 33.9624 53.0376 31.5 50.0001 31.5C46.9625 31.5 44.5001 33.9624 44.5001 37C44.5001 40.0376 46.9625 42.5 50.0001 42.5Z" fill="black" stroke="black"/>
</svg>
