<svg width="75" height="75" viewBox="0 0 75 75" fill="none" xmlns="http://www.w3.org/2000/svg">
<path d="M56.8227 31.3566L56.8217 31.4048L56.8237 31.453L56.8281 31.5599V44.9285C56.8281 48.7107 58.6349 52.1807 61.5567 54.3633H13.4433C16.3651 52.1807 18.1719 48.7107 18.1719 44.9285V31.5249L18.1739 31.4966L18.1788 31.4267L18.1773 31.3567C18.1736 31.195 18.1719 31.0326 18.1719 30.8695C18.1719 19.55 26.8935 10.5 37.5 10.5C48.1065 10.5 56.8281 19.55 56.8281 30.8695C56.8281 31.0326 56.8264 31.195 56.8227 31.3566Z" fill="black" stroke="black" stroke-width="3"/>
<path d="M47.5316 58.9875C43.8872 67.811 31.3897 67.811 27.7452 58.9875" stroke="black" stroke-width="3" stroke-linecap="round" stroke-linejoin="round"/>
</svg>
