<svg width="75" height="75" viewBox="0 0 75 75" fill="none" xmlns="http://www.w3.org/2000/svg">
<path d="M63.0107 21.5298C71.295 35.8786 66.3787 54.2263 52.0299 62.5106C37.6811 70.7948 19.3334 65.8786 11.0492 51.5298C2.76488 37.181 7.68114 18.8333 22.0299 10.549C36.3787 2.26477 54.7264 7.18102 63.0107 21.5298ZM50.7737 30.6653C50.7698 29.7801 50.298 28.963 49.5334 28.5169L28.4471 16.2173C26.7762 15.2426 24.6789 16.4535 24.6875 18.3879L24.7962 42.799C24.8001 43.6842 25.2719 44.5013 26.0366 44.9473L47.1228 57.247C48.7938 58.2216 50.891 57.0107 50.8824 55.0764L50.7737 30.6653Z" fill="black" stroke="black" stroke-width="3"/>
</svg>
