<svg width="75" height="75" viewBox="0 0 75 75" fill="none" xmlns="http://www.w3.org/2000/svg">
<path d="M54 71.5C60.9036 71.5 66.5 65.9036 66.5 59V16C66.5 9.09644 60.9036 3.5 54 3.5H30.7818C29.4011 3.5 28.2818 4.61929 28.2818 6C28.2818 7.38071 29.4011 8.5 30.7818 8.5H54C58.1421 8.5 61.5 11.8579 61.5 16V59C61.5 63.1421 58.1421 66.5 54 66.5H30.7818C29.4011 66.5 28.2818 67.6193 28.2818 69C28.2818 70.3807 29.4011 71.5 30.7818 71.5H54Z" fill="black"/>
<path d="M39.4187 23.3739C38.3572 22.3123 36.6362 22.3123 35.5747 23.3739C34.5131 24.4354 34.5131 26.1564 35.5747 27.218L42.3195 33.9628H11.5661C10.0649 33.9628 8.8479 35.1798 8.8479 36.681C8.8479 38.1822 10.0649 39.3992 11.5661 39.3992H42.4963L35.5747 46.3208C34.5131 47.3823 34.5131 49.1034 35.5747 50.1649C36.6362 51.2264 38.3572 51.2264 39.4187 50.1649L50.3541 39.2295C51.7128 37.8708 51.7128 35.6679 50.3541 34.3092L39.4187 23.3739Z" fill="black"/>
</svg>
