<svg width="75" height="75" viewBox="0 0 75 75" fill="none" xmlns="http://www.w3.org/2000/svg">
<path fill-rule="evenodd" clip-rule="evenodd" d="M44.9144 4.67092C45.6484 5.49631 45.5744 6.76047 44.749 7.49451L11.0097 37.5L44.749 67.5055C45.5744 68.2396 45.6484 69.5037 44.9144 70.3291C44.1803 71.1545 42.9162 71.2286 42.0908 70.4945L8.35147 40.489C6.5624 38.8979 6.5624 36.1021 8.35147 34.511L42.0908 4.50553C42.9162 3.77149 44.1803 3.84554 44.9144 4.67092Z" fill="black"/>
<path fill-rule="evenodd" clip-rule="evenodd" d="M68.0839 4.67092C68.818 5.49631 68.7439 6.76047 67.9186 7.49451L34.1792 37.5L67.9186 67.5055C68.7439 68.2396 68.818 69.5037 68.0839 70.3291C67.3499 71.1545 66.0857 71.2286 65.2604 70.4945L31.521 40.489C29.732 38.8979 29.732 36.1021 31.521 34.511L65.2604 4.50553C66.0857 3.77149 67.3499 3.84554 68.0839 4.67092Z" fill="black"/>
</svg>
