<svg width="75" height="75" viewBox="0 0 75 75" fill="none" xmlns="http://www.w3.org/2000/svg">
<path d="M68.1087 35.8747C68.1087 51.5457 55.4077 64.2494 39.7405 64.2494C34.945 64.2494 30.4289 63.0597 26.4695 60.9596C25.5957 60.4961 24.5597 60.3685 23.5962 60.6854L7.93039 65.8387C7.52287 65.9727 7.14685 65.565 7.31334 65.1696L13.7135 49.9715C14.107 49.037 14.0635 47.9945 13.6726 47.0863C12.1924 43.6478 11.3722 39.8577 11.3722 35.8747C11.3722 20.2037 24.0732 7.5 39.7405 7.5C55.4077 7.5 68.1087 20.2037 68.1087 35.8747ZM30.3475 25.8787C29.1759 27.0503 29.1759 28.9497 30.3475 30.1213L35.4918 35.2656L30.3475 40.4099C29.1759 41.5815 29.1759 43.481 30.3475 44.6525C31.5191 45.8241 33.4186 45.8241 34.5901 44.6525L39.7344 39.5083L44.8787 44.6525C46.0503 45.8241 47.9498 45.8241 49.1213 44.6525C50.2929 43.481 50.2929 41.5815 49.1213 40.4099L43.9771 35.2656L49.1213 30.1213C50.2929 28.9497 50.2929 27.0503 49.1213 25.8787C47.9498 24.7071 46.0503 24.7071 44.8787 25.8787L39.7344 31.023L34.5901 25.8787C33.4186 24.7071 31.5191 24.7071 30.3475 25.8787Z" fill="black" stroke="black" stroke-linecap="round"/>
</svg>
