<svg width="75" height="75" viewBox="0 0 75 75" fill="none" xmlns="http://www.w3.org/2000/svg">
<circle cx="37.0589" cy="25.3529" r="8.20588" fill="black" stroke="black" stroke-width="3"/>
<circle cx="37.0589" cy="25.3529" r="8.20588" fill="black" stroke="black" stroke-width="3"/>
<path d="M20.0295 51.2602C20.0295 45.1987 25.3816 40.0881 32.2362 40.0881H41.8817C48.7363 40.0881 54.0884 45.1987 54.0884 51.2602V53.6469C54.0884 56.6845 51.6259 59.1469 48.5884 59.1469H25.5295C22.492 59.1469 20.0295 56.6845 20.0295 53.6469V51.2602Z" fill="black" stroke="black" stroke-width="3"/>
<circle cx="58.6768" cy="21.3824" r="6.88235" fill="black" stroke="black" stroke-width="3"/>
<path d="M51.4332 36.7478C50.6887 36.3959 50.2153 35.7438 50.097 35.2468C50.042 35.016 50.0789 34.8972 50.0986 34.8564L50.0988 34.856C50.1089 34.835 50.1588 34.731 50.4264 34.6307C51.6595 34.1683 53.0126 33.9118 54.4362 33.9118H62.9299C68.8816 33.9118 73.5 38.3425 73.5 43.5632V47.621C73.5 49.1136 72.29 50.3236 70.7974 50.3236H60.529C60.4527 44.3456 56.7263 39.2493 51.4332 36.7478Z" fill="black" stroke="black" stroke-width="3"/>
<circle r="6.88235" transform="matrix(-1 0 0 1 16.3232 21.3823)" fill="black" stroke="black" stroke-width="3"/>
<path d="M23.5668 36.7478C24.3113 36.3959 24.7847 35.7438 24.903 35.2468C24.958 35.016 24.9211 34.8972 24.9014 34.8564L24.9012 34.856C24.8911 34.835 24.8412 34.731 24.5736 34.6307C23.3405 34.1683 21.9874 33.9118 20.5638 33.9118H12.0701C6.11838 33.9118 1.50001 38.3425 1.50001 43.5632V47.621C1.50001 49.1136 2.70999 50.3236 4.20258 50.3236H14.471C14.5473 44.3456 18.2737 39.2493 23.5668 36.7478Z" fill="black" stroke="black" stroke-width="3"/>
</svg>
