<svg width="75" height="75" viewBox="0 0 75 75" fill="none" xmlns="http://www.w3.org/2000/svg">
<path d="M67.5 37.5C67.5 54.0685 54.0685 67.5 37.5 67.5C20.9315 67.5 7.5 54.0685 7.5 37.5C7.5 20.9315 20.9315 7.5 37.5 7.5C54.0685 7.5 67.5 20.9315 67.5 37.5ZM52.3347 39.293C52.7739 38.5244 52.7739 37.5809 52.3347 36.8123L40.2233 15.6174C39.2636 13.9378 36.8418 13.9378 35.8821 15.6174L23.7707 36.8123C23.3315 37.5809 23.3315 38.5244 23.7707 39.293L35.8821 60.488C36.8418 62.1675 39.2636 62.1675 40.2233 60.488L52.3347 39.293Z" fill="black" stroke="black" stroke-width="3"/>
</svg>
