<svg width="75" height="75" viewBox="0 0 75 75" fill="none" xmlns="http://www.w3.org/2000/svg">
<path d="M44.9258 14.1059C43.6033 13.7095 42.2098 14.4604 41.8134 15.783L28.9921 58.5649C28.5957 59.8875 29.3466 61.281 30.6692 61.6773C31.9918 62.0737 33.3853 61.3228 33.7816 60.0003L46.6029 17.2183C46.9993 15.8957 46.2484 14.5023 44.9258 14.1059Z" fill="black"/>
<path d="M24.308 22.9792C25.3428 22.0652 25.4407 20.4853 24.5266 19.4505C23.6125 18.4157 22.0326 18.3178 20.9978 19.2319L3.52084 34.6699C1.49305 36.4611 1.49305 39.6239 3.52084 41.4151L20.9978 56.8532C22.0326 57.7672 23.6125 57.6694 24.5266 56.6346C25.4407 55.5998 25.3428 54.0199 24.308 53.1058L7.25525 38.0425L24.308 22.9792Z" fill="black"/>
<path d="M50.6502 53.9688C49.6154 54.8829 49.5176 56.4628 50.4316 57.4976C51.3457 58.5324 52.9256 58.6303 53.9604 57.7162L71.4374 42.2782C73.4652 40.487 73.4652 37.3241 71.4374 35.5329L53.9604 20.0949C52.9256 19.1808 51.3457 19.2787 50.4316 20.3135C49.5176 21.3483 49.6154 22.9282 50.6502 23.8423L67.703 38.9056L50.6502 53.9688Z" fill="black"/>
</svg>
