<svg width="1024" height="1024" viewBox="0 0 1024 1024" fill="none" xmlns="http://www.w3.org/2000/svg">
<rect x="5" y="4" width="1015" height="1015" rx="200" fill="#101010"/>
<path d="M771.343 724.363C740.365 761.282 704.674 790.521 664.271 812.08C623.382 833.233 584.932 843.601 548.921 843.184L548.921 829.5C582.177 829.261 617.295 814.881 656.068 795.264C694.356 775.241 727.97 747.984 756.91 713.495C801.34 660.546 824.337 611.965 825.903 567.75C827.391 522.642 811.404 486.05 777.943 457.972C751.756 435.999 724.992 425.545 697.653 426.61C670.315 427.676 644.002 435.398 618.716 449.775C593.837 463.667 562.602 484.641 525.01 512.699C484.41 542.371 450.817 564.679 424.23 579.621C397.159 594.155 368.372 601.871 337.871 602.766C307.292 602.769 277.212 590.359 247.63 565.537C224.352 546.005 208.109 522.028 198.902 493.607C189.694 465.186 190.072 433.22 200.037 397.708C210.001 362.196 230.88 325.496 262.673 287.606C285.499 260.403 312.282 237.348 343.022 218.441C373.277 199.127 404.54 189.144 434.5 182L438.258 196.535C406.998 204.244 377.336 217.434 349.274 236.104C321.135 253.882 297.079 274.672 277.106 298.474C234.307 349.48 212.61 397.497 212.014 442.526C210.933 487.147 227.124 523.497 260.585 551.574C286.773 573.548 313.778 584.205 341.602 583.547C368.941 582.481 395.254 574.759 420.54 560.382C445.826 546.005 477.712 524.748 516.196 496.611C556.388 467.424 590.02 445.564 617.091 431.029C643.678 416.087 672.018 408.411 702.112 408.001C731.721 407.185 761.074 418.984 790.171 443.399C813.449 462.931 829.487 487.151 838.287 516.058C847.088 544.964 846.302 577.417 835.93 613.414C825.48 648.519 803.951 685.502 771.343 724.363Z" fill="#E7002A"/>
<path d="M788.914 700.987C761.272 740.465 728.265 772.703 689.894 797.702C651.005 822.338 613.605 836.017 577.694 838.741L574 826.5C607.109 823.363 643.342 804.586 680.258 781.665C716.655 758.38 747.765 728.298 773.589 691.418C813.235 634.798 831.91 584.397 829.617 540.214C827.168 495.148 808.053 460.088 772.272 435.034C744.269 415.426 716.696 407.345 689.554 410.789C662.412 414.234 636.873 424.219 612.936 440.746C589.363 456.753 560.074 480.37 525.071 511.597C487.212 544.695 455.69 569.845 430.507 587.048C404.806 603.887 376.801 614.081 346.494 617.632C316.032 620.3 284.984 610.559 253.351 588.409C228.46 570.98 210.189 548.511 198.54 521C186.89 493.49 184.481 461.612 191.312 425.367C198.144 389.122 215.744 350.741 244.114 310.225C264.483 281.136 289.154 255.834 318.129 234.32C346.586 212.443 377.276 199.228 406.5 189.5L411.094 204.197C380.624 214.601 352.225 230.326 325.897 251.371C299.414 271.533 277.261 294.341 259.439 319.794C221.249 374.336 203.819 424.061 207.15 468.97C209.963 513.516 229.259 548.316 265.041 573.371C293.043 592.978 320.875 601.242 348.536 598.16C375.678 594.716 401.217 584.73 425.154 568.204C449.091 551.677 479.003 527.722 514.888 496.339C552.384 463.76 583.982 439.051 609.684 422.212C634.867 405.01 662.43 394.893 692.374 391.862C721.799 388.468 752.069 397.664 783.183 419.451C808.074 436.88 826.163 459.609 837.449 487.639C848.735 515.669 850.781 548.066 843.586 584.831C836.235 620.713 818.012 659.431 788.914 700.987Z" fill="#E7002A"/>
<path d="M751.801 746.12C717.723 780.197 679.62 806.215 637.491 824.171C594.915 841.679 555.707 848.656 519.869 845.103L519.869 830C553.02 832.66 590.45 822.866 630.785 806.704C670.673 790.093 706.534 765.87 738.37 734.034C787.245 685.16 814.389 638.767 819.803 594.857C825.217 550.051 812.48 512.204 781.593 481.317C757.421 457.145 731.67 444.398 704.343 443.077C677.015 441.756 650.129 447.155 623.686 459.274C597.692 470.944 564.747 489.116 524.853 513.791C481.821 539.812 446.412 559.107 418.624 571.675C390.389 583.795 361.04 588.972 330.576 587.205C300.113 584.543 271.229 569.559 243.923 542.253C222.437 520.766 208.345 495.465 201.65 466.35C194.954 437.235 198.117 405.423 211.139 370.915C224.16 336.406 248.158 301.665 283.133 266.69C308.243 241.58 336.933 220.947 369.204 204.792C401.027 188.188 432.531 179.006 463 174.5L465.987 191.269C434.174 196.224 403.476 206.779 373.893 222.932C344.311 238.19 318.534 256.804 296.563 278.775C249.482 325.857 223.682 371.8 219.164 416.605C214.199 460.963 227.159 498.586 258.046 529.473C282.219 553.645 308.193 566.616 335.968 568.384C363.296 569.705 390.182 564.306 416.625 552.188C443.068 540.069 476.685 521.672 517.475 496.997C560.058 471.424 595.467 452.577 623.702 440.457C651.49 427.889 680.391 422.713 710.406 424.927C739.974 426.694 768.187 441.007 795.045 467.865C816.532 489.352 830.398 514.877 836.646 544.441C842.893 574.005 839.282 606.265 825.812 641.222C812.343 675.282 787.672 710.248 751.801 746.12Z" fill="#E7002A"/>
<path d="M804.381 676.168C780.285 717.905 750.213 752.897 714.168 781.145C677.574 809.076 641.508 825.964 605.971 831.806L603 817C635.71 810.989 668.392 792.06 703.17 766.009C737.399 739.641 765.769 706.962 788.281 667.971C822.841 608.111 837.052 556.274 830.917 512.459C824.549 467.779 802.451 434.518 764.623 412.678C735.018 395.585 706.846 389.937 680.107 395.734C653.369 401.531 628.797 413.705 606.391 432.255C584.303 450.255 557.184 476.335 525.035 510.494C490.205 546.766 460.996 574.568 437.408 593.899C413.272 612.914 386.262 625.511 356.38 631.689C326.266 637.002 294.487 630.004 261.045 610.696C234.729 595.503 214.57 574.711 200.567 548.321C186.563 521.93 181.385 490.384 185.032 453.681C188.678 416.979 202.867 377.21 227.598 334.375C245.353 303.622 267.726 276.266 294.715 252.308C321.157 228.034 353.236 212.738 381.5 200.5L384.701 214.198C355.254 227.218 328.333 245.358 303.94 268.617C279.315 291.011 259.234 315.663 243.698 342.572C210.407 400.235 197.377 451.29 204.609 495.738C211.294 539.87 233.55 572.856 271.379 594.696C300.984 611.788 329.43 617.594 356.717 612.114C383.455 606.317 408.027 594.144 430.433 575.594C452.838 557.044 480.548 530.573 513.562 496.182C548.075 460.459 577.4 433.09 601.536 414.075C625.124 394.743 651.701 382.263 681.267 376.634C710.284 370.688 741.24 377.211 774.135 396.203C800.45 411.396 820.451 432.462 834.137 459.402C847.823 486.341 852.684 518.437 848.721 555.689C844.526 592.075 829.746 632.234 804.381 676.168Z" fill="#E7002A"/>
<path d="M730.437 766.09C693.519 797.068 653.293 819.665 609.76 833.881C565.819 847.613 526.153 851.146 490.761 844.482L493.027 826.466C525.82 832.005 563.012 828.482 604.602 815.897C645.785 802.826 683.622 781.821 718.111 752.88C771.06 708.451 802.144 664.601 811.364 621.33C820.662 577.166 811.273 538.354 783.195 504.892C761.221 478.705 736.68 463.762 709.571 460.065C682.463 456.367 655.209 459.402 627.81 469.17C600.897 478.53 566.494 493.762 524.602 514.866C479.466 537.038 442.51 553.172 413.732 563.271C384.548 572.884 354.859 575.483 324.666 571.068C294.551 565.761 267.082 548.317 242.26 518.735C222.728 495.457 210.896 469.024 206.763 439.436C202.63 409.848 208.554 378.433 224.533 345.191C240.513 311.949 267.448 279.432 305.338 247.638C332.541 224.812 362.92 206.758 396.476 193.477C429.625 179.71 461.573 171.91 492.318 170.077L494.069 188.441C461.945 190.604 430.444 198.443 399.566 211.957C368.767 224.578 341.466 240.875 317.664 260.848C266.658 303.647 236.952 347.166 228.546 391.408C219.734 435.164 229.366 473.772 257.444 507.234C279.417 533.421 304.162 548.606 331.678 552.789C358.786 556.487 386.04 553.451 413.439 543.684C440.837 533.916 475.93 518.518 518.715 497.492C563.365 475.728 600.282 460.039 629.466 450.426C658.243 440.328 687.486 437.69 717.194 442.512C746.495 446.85 773.353 463.567 797.768 492.664C817.3 515.941 828.89 542.578 832.537 572.574C836.183 602.569 829.774 634.392 813.309 668.042C796.922 700.799 769.298 733.482 730.437 766.09Z" fill="white"/>
</svg>
